<svg xmlns="http://www.w3.org/2000/svg" xmlns:xlink="http://www.w3.org/1999/xlink" xmlns:lucid="lucid" width="2020" height="2229"><g transform="translate(140 1040)" lucid:page-tab-id="0_0"><path d="M-500-1500h2500v3000H-500z" fill="#fff"/><path d="M-140-618a2 2 0 0 1 2-2h2016a2 2 0 0 1 2 2V838a2 2 0 0 1-2 2H-138a2 2 0 0 1-2-2z" fill="#f6f6f6"/><path d="M-88.28-591.92c.02-2.27.85-4.2 2.48-5.8 1.64-1.6 3.6-2.38 5.87-2.37 1.06 0 2.07.18 3.03.57.97.4 1.84.96 2.58 1.7l-1.63 1.56c-1.13-1.07-2.44-1.6-3.98-1.6-1.06 0-2.07.27-3 .8-.9.55-1.63 1.28-2.15 2.2-.53.94-.76 1.93-.74 3-.02 1.05.2 2.05.74 2.98.52.93 1.24 1.66 2.16 2.2.92.54 1.93.8 3 .8.77.04 1.5-.1 2.22-.37.7-.3 1.33-.7 1.9-1.26.72-.8 1.13-1.73 1.2-2.8h-5.33v-2.33h7.47c.1.46.14.93.14 1.4.07 2-.6 3.75-1.95 5.23-.74.77-1.6 1.35-2.58 1.75-1 .4-2.02.58-3.08.54-2.28 0-4.23-.78-5.87-2.37-1.63-1.6-2.46-3.54-2.48-5.82zm0 0M-66.25-594.27c-1.45 0-2.7.5-3.72 1.54-1.04 1.03-1.54 2.27-1.54 3.73s.52 2.7 1.55 3.72c1.03 1.03 2.28 1.54 3.73 1.54 1.44 0 2.7-.5 3.72-1.54 1.04-1.03 1.54-2.27 1.54-3.73.03-.95-.2-1.84-.66-2.66-.46-.82-1.13-1.47-1.96-1.94-.83-.46-1.72-.7-2.67-.67zm0 8.45c-.55 0-1.06-.16-1.54-.45-.47-.3-.84-.68-1.1-1.18-.24-.5-.36-1-.34-1.56 0-.84.3-1.55.88-2.13.57-.6 1.28-.88 2.1-.88.84 0 1.58.28 2.15.87.57.58.87 1.3.87 2.12.02.54-.1 1.07-.35 1.56-.25.5-.62.9-1.1 1.18-.5.3-1 .44-1.57.45zM-54.68-594.27c-1.45 0-2.7.52-3.72 1.55-1.04 1.03-1.55 2.27-1.55 3.73s.53 2.7 1.57 3.73c1.03 1.02 2.28 1.53 3.73 1.53 1.44 0 2.7-.5 3.72-1.54 1.04-1.03 1.54-2.27 1.54-3.73.03-.95-.2-1.84-.68-2.66-.48-.83-1.1-1.47-1.93-1.94-.84-.47-1.73-.7-2.68-.67zm0 8.45c-.55 0-1.08-.16-1.56-.45-.48-.3-.83-.68-1.08-1.18-.26-.5-.4-1-.37-1.56 0-.84.33-1.55.9-2.13.58-.6 1.3-.88 2.12-.88.83 0 1.54.28 2.12.87.57.58.87 1.3.87 2.12.04.54-.08 1.07-.33 1.56-.26.5-.62.9-1.1 1.18-.5.3-1 .44-1.55.45zM-40.5-593.95v.86h-.08c-.37-.38-.78-.68-1.26-.88-.5-.2-1-.3-1.52-.3-1.4.07-2.62.6-3.6 1.63-.96 1-1.46 2.23-1.46 3.64 0 1.4.5 2.62 1.47 3.63.97 1.02 2.2 1.56 3.6 1.62.52.02 1.02-.08 1.5-.3.5-.2.93-.5 1.27-.9h.07v.76c0 2-1.1 3.1-2.84 3.1-.57 0-1.1-.2-1.6-.53-.47-.34-.8-.78-1.02-1.33l-2 .84c.4.95 1 1.7 1.86 2.27.85.57 1.8.85 2.83.84 2.7 0 5-1.6 5-5.5v-9.45h-2.22zm-2.68 8.14c-.55-.02-1.06-.17-1.52-.46-.46-.3-.82-.68-1.08-1.17-.25-.5-.34-1-.32-1.56-.02-.53.07-1.06.32-1.55.26-.5.62-.88 1.08-1.18.46-.3.97-.45 1.52-.47.55.03 1.04.2 1.5.5.46.3.8.7 1.03 1.18.23.48.35 1 .3 1.53.02.55-.07 1.05-.3 1.53-.23.5-.6.87-1.03 1.17-.44.3-.97.46-1.5.5zm0 0M-36.72-599.53h2.33v15.47h-2.32zM-28.04-585.8c-.56 0-1.06-.13-1.52-.42-.46-.3-.8-.7-1.04-1.2l7.06-2.9-.25-.6c-.3-.98-.9-1.78-1.7-2.4-.84-.6-1.76-.92-2.8-.95-.92 0-1.8.23-2.6.7-.8.5-1.4 1.14-1.84 1.95-.43.82-.62 1.7-.57 2.62-.03.94.2 1.82.66 2.64.46.83 1.1 1.47 1.93 1.94.82.47 1.7.7 2.63.68.88 0 1.73-.2 2.5-.6.8-.43 1.4-1 1.9-1.73l-1.8-1.2c-.27.45-.64.8-1.1 1.07-.46.26-.95.4-1.47.4zm-.2-6.44c.43-.04.82.04 1.18.25.37.2.65.5.83.88l-4.7 2c-.06-.53.03-1.02.26-1.5.23-.47.56-.85 1-1.14.43-.3.9-.45 1.44-.48zm0 0M-18.96-591.2c-.02-1.34.28-2.6.94-3.76.67-1.16 1.57-2.08 2.74-2.74 1.17-.67 2.42-1 3.75-.96 1-.02 1.98.17 2.9.58.92.4 1.7 1 2.37 1.75l-1.3 1.24c-.47-.6-1.07-1.06-1.8-1.38-.7-.32-1.4-.46-2.2-.43-1-.03-1.97.22-2.84.73-.88.5-1.57 1.2-2.05 2.1-.48.9-.7 1.86-.67 2.87-.04 1 .2 1.95.7 2.84.47.88 1.14 1.58 2.02 2.08.87.5 1.8.75 2.82.74.86 0 1.66-.18 2.42-.52.76-.35 1.42-.84 1.98-1.48l1.3 1.28c-1.05 1.16-2.3 1.92-3.8 2.3-1.53.37-3 .28-4.45-.27-1.45-.55-2.64-1.46-3.52-2.74-.87-1.27-1.3-2.68-1.3-4.23zm0 0M-4.45-584.06v-14.28h1.84v14.28zM8.82-588.95c0 1.4-.48 2.58-1.47 3.56-1 1-2.18 1.48-3.56 1.48-1.4 0-2.56-.5-3.55-1.48-1-.98-1.48-2.16-1.48-3.55 0-1.38.5-2.57 1.48-3.55 1-.98 2.16-1.47 3.54-1.47 1.37 0 2.56.5 3.55 1.47 1 .98 1.47 2.17 1.47 3.55zm-1.83 0c.05-.72-.13-1.4-.52-2-.4-.62-.97-1.04-1.66-1.28-.7-.24-1.38-.24-2.07 0-.7.24-1.24.66-1.63 1.27-.4.62-.6 1.3-.53 2 0 .9.3 1.66.93 2.28.62.63 1.38.94 2.28.94.9 0 1.67-.3 2.3-.94.6-.63.93-1.38.93-2.27zM17.13-584.06v-1.36H17c-.33.52-.77.93-1.32 1.23-.55.3-1.15.46-1.77.46-2.52 0-3.72-1.7-3.72-4.1v-6h1.84v5.7c0 2 1 2.73 2.42 2.73.76-.08 1.4-.4 1.9-1 .5-.57.72-1.24.67-2v-5.4h1.85v9.77H17.1zM20.37-588.95c-.07-1.35.37-2.53 1.27-3.54.9-1 2.02-1.56 3.38-1.65.66-.02 1.3.12 1.88.4.6.3 1.08.73 1.45 1.27h.07l-.07-1.36v-4.5h1.84v14.28H28.4v-1.36h-.07c-.37.55-.85.97-1.45 1.27-.6.3-1.22.43-1.88.4-1.36-.08-2.5-.64-3.38-1.65-.9-1-1.34-2.2-1.27-3.55zm8.07 0c.1-.72-.07-1.4-.46-2-.4-.63-.92-1.06-1.6-1.3-.7-.25-1.4-.25-2.08 0-.7.24-1.24.66-1.63 1.28-.4.63-.55 1.3-.46 2.02-.08.73.08 1.4.47 2.02.4.62.94 1.05 1.63 1.3.7.24 1.38.24 2.07 0 .7-.25 1.22-.68 1.6-1.3.4-.62.57-1.3.47-2.02zM35.23-584.06v-14.28h4.88c.8-.03 1.52.14 2.2.52.7.37 1.23.9 1.65 1.56.4.66.6 1.4.62 2.17-.03.8-.2 1.5-.62 2.18-.42.66-.95 1.18-1.64 1.56-.68.37-1.4.54-2.2.52h-3v5.78h-1.85zm4.9-7.54c.7 0 1.3-.24 1.77-.73.48-.5.73-1.07.73-1.76 0-.68-.25-1.27-.73-1.76-.48-.5-1.08-.73-1.77-.73H37v5h3.08zM45.85-584.06v-14.28h1.84v14.28zM49.28-587c0-2.23 2-3.42 4.3-3.42.95-.03 1.84.18 2.67.6v-.28c-.05-.58-.25-1.1-.64-1.54-.38-.44-.84-.72-1.42-.83-.57-.12-1.13-.05-1.66.2-.52.26-.92.65-1.17 1.17l-1.68-.72c.46-.9 1.15-1.54 2.05-1.96.9-.43 1.84-.53 2.83-.3 1 .2 1.8.7 2.44 1.47.63.75.95 1.64 1 2.64v5.9h-1.75v-1.36h-.1c-.34.55-.8.97-1.37 1.27-.58.3-1.2.43-1.84.4-.62.07-1.2-.04-1.77-.32-.58-.27-1-.67-1.36-1.2-.33-.53-.52-1.1-.52-1.74zm7-1.27c-.72-.47-1.48-.68-2.33-.63-1.93 0-2.7 1-2.7 1.93.06.5.3.88.68 1.18.4.3.83.44 1.3.38.8 0 1.5-.27 2.08-.82.58-.55.9-1.23.95-2.03zM60.64-587.03v-5.13h-1.72v-1.68h1.72v-3h1.84v3h2.4v1.68h-2.4v5c0 1.1.5 1.58 1.34 1.58.3.02.55-.03.83-.15l.64 1.57c-.5.2-.98.28-1.48.26-.58.07-1.13-.03-1.66-.3s-.92-.66-1.2-1.18c-.27-.52-.38-1.07-.32-1.65zM72.6-598.16l-.62 1.57c-.27-.1-.53-.16-.83-.15-.3-.02-.57.04-.85.2-.27.14-.48.35-.62.62s-.18.55-.16.86v1.24h2.46v1.67h-2.55v8.1H67.6v-8.1h-1.85v-1.68h1.84v-1.3c-.03-.6.1-1.18.43-1.7.32-.54.76-.95 1.3-1.24.56-.28 1.14-.4 1.76-.34.52-.03 1.02.06 1.5.26zM82.6-588.95c0 1.4-.47 2.58-1.46 3.56-1 1-2.2 1.48-3.57 1.48-1.38 0-2.57-.5-3.56-1.48-.98-.98-1.47-2.16-1.47-3.55 0-1.38.5-2.57 1.48-3.55 1-.98 2.2-1.47 3.57-1.47 1.38 0 2.58.5 3.57 1.47 1 .98 1.47 2.17 1.47 3.55zm-1.83 0c.07-.72-.12-1.4-.5-2-.4-.62-.97-1.04-1.66-1.28-.68-.24-1.37-.24-2.06 0-.7.24-1.27.66-1.66 1.27-.4.62-.57 1.3-.5 2-.07.75.1 1.42.5 2.03.4.6.97 1.03 1.66 1.27.7.24 1.38.24 2.07 0 .7-.24 1.27-.67 1.66-1.27.4-.62.58-1.3.5-2.02zM84.08-584.06v-9.78h1.77v1.6h.07c.25-.54.67-1 1.17-1.32.5-.33 1.08-.5 1.67-.5.5-.03.95.05 1.38.22l-.7 1.72c-.33-.1-.65-.15-1-.14-.48.02-.92.16-1.33.43-.42.26-.74.6-.95 1.05-.2.43-.32.9-.27 1.38v5.34zm0 0M91.14-593.84h1.75v1.36h.08c.35-.5.78-.9 1.3-1.2.54-.3 1.12-.45 1.72-.47.66-.06 1.26.1 1.83.43.58.35 1 .83 1.25 1.44.36-.6.87-1.05 1.47-1.38.6-.34 1.26-.5 1.95-.5 2.4 0 3.5 1.7 3.5 4.12v5.98h-1.84v-5.7c0-2-.78-2.72-2.2-2.72-1.4 0-2.47 1.52-2.47 3v5.4h-1.85v-5.68c0-2-.78-2.72-2.18-2.72-1.4 0-2.5 1.52-2.5 3v5.4H91.1v-9.75z" fill="#737373"/><path d="M-105.62-584.05l-2.88 5h-7.52c-.34 0-.64-.1-.94-.26-.3-.18-.53-.4-.7-.7l-6.06-10.6c-.17-.3-.26-.6-.26-.93 0-.34.1-.65.26-.94l2.3-4.05 2.85 5 4.32 7.47zm0 0" fill="#ffcc40"/><path d="M-96.12-590.6l-6.1 10.6c-.16.3-.4.52-.7.7-.3.16-.6.24-.93.24h-4.65l2.88-5 4.32-7.47-4.32-7.48h5.68l3.77 6.54c.16.3.28.6.28.93 0 .32-.06.64-.22.93z" fill="#da4437"/><path d="M-99.94-599h-14.3l-4.3 7.47-2.88-5 3.77-6.53c.16-.3.4-.52.7-.7.3-.16.6-.24.93-.24h12.17c.34 0 .64.08.94.25.3.17.52.4.68.7z" fill="#4284f3"/><path d="M-105.62-599l4.32 7.47-4.32 7.48h-8.63l-4.3-7.48 4.3-7.48z" fill="#dfdfdf"/><path d="M-113.67-591.53c0-2.07 1.68-3.74 3.75-3.74 2.07 0 3.75 1.67 3.75 3.74 0 2.06-1.68 3.74-3.75 3.74-2.07 0-3.75-1.67-3.75-3.73z" fill="#fff"/><path d="M-117.65-602.9c.16-.3.4-.52.7-.7.3-.16.6-.24.93-.24h12.17c.34 0 .64.08.94.25.3.18.52.4.68.7l2.28 3.9-2.28-4.06c-.16-.3-.4-.52-.7-.7-.3-.16-.6-.24-.93-.24h-12.17c-.34 0-.64.08-.94.25-.3.17-.53.4-.7.7l-3.76 6.53v.08z" fill="#fff" fill-opacity=".2"/><path d="M-118.55-591.53l4.3-7.48h14.35l-.06-.17h-14.3l-4.3 7.48" fill="#1a237e" fill-opacity=".2"/><path d="M-123.72-592.3l2.3-4 2.87 5 4.3 7.47h8.56l.08-.16h-8.63l-4.3-7.53-2.87-5-2.33 4c-.18.3-.25.64-.23 1 .03-.28.12-.54.26-.78zm0 0" fill="#fff" fill-opacity=".2"/><path d="M-108.4-579.22h-7.62c-.34 0-.64-.08-.94-.25-.3-.17-.53-.4-.7-.7l-6.06-10.58c-.14-.26-.23-.55-.26-.85-.02.36.07.7.26 1l6.07 10.6c.16.3.4.52.7.7.3.16.6.24.93.24h7.52z" fill="#be360c"/><path d="M-101.2-591.53l-4.33-7.48h-.1l4.33 7.47zM-96.12-590.75l-6.1 10.6c-.16.28-.4.5-.7.68-.3.17-.6.25-.93.25h-4.56l-.1.16h4.65c.34 0 .64-.08.94-.25.3-.18.52-.4.68-.7l6.1-10.6c.18-.3.25-.63.23-1-.02.3-.1.6-.22.85zm0 0" fill="#3e2723"/><path d="M-99.94-598.85l3.77 6.55c.14.26.23.55.25.85.03-.35-.07-.7-.25-1l-3.77-6.56h-5.68l.1.15M-105.62-583.9l4.4-7.63h-.08l-4.32 7.48-2.88 5h.1z" fill="#fff"/><path d="M-96.12-592.46l-3.82-6.55-2.28-4.06c-.16-.3-.4-.52-.7-.7-.3-.16-.6-.24-.93-.24h-12.17c-.34 0-.64.08-.94.25-.3.17-.53.4-.7.7l-6.06 10.6c-.17.28-.26.6-.26.93 0 .33.1.64.26.93l6.07 10.6c.16.3.4.52.7.7.3.16.6.24.93.24h12.17c.34 0 .64-.08.94-.25.3-.18.52-.4.68-.7l6.1-10.6c.16-.28.25-.6.25-.92 0-.34-.1-.65-.25-.94z" fill="url(#a)"/><path d="M-100 222a2 2 0 0 1 2-2h1956a2 2 0 0 1 2 2v576a2 2 0 0 1-2 2H-98a2 2 0 0 1-2-2z" fill="#e3f2fd"/><use xlink:href="#b" transform="matrix(1,0,0,1,-84,236) translate(0 15.530273437500002)"/><use xlink:href="#c" transform="matrix(1,0,0,1,-84,236) translate(36.250927734375 15.530273437500002)"/><use xlink:href="#d" transform="matrix(1,0,0,1,-84,236) translate(106.99541015625 15.530273437500002)"/><path d="M-60 302a2 2 0 0 1 2-2h856a2 2 0 0 1 2 2v456a2 2 0 0 1-2 2H-58a2 2 0 0 1-2-2z" fill="#eceff1"/><use xlink:href="#e" transform="matrix(1,0,0,1,-44,316) translate(0 15.530273437500002)"/><use xlink:href="#f" transform="matrix(1,0,0,1,-44,316) translate(0 35.14746093750001)"/><path d="M900 282a2 2 0 0 1 2-2h829.5a2 2 0 0 1 2 2v476a2 2 0 0 1-2 2H902a2 2 0 0 1-2-2z" fill="#eceff1"/><use xlink:href="#e" transform="matrix(1,0,0,1,916,296) translate(0 15.530273437500002)"/><use xlink:href="#g" transform="matrix(1,0,0,1,916,296) translate(0 35.14746093750001)"/><path d="M140 332a2 2 0 0 1 2-2h616a2 2 0 0 1 2 2v406a2 2 0 0 1-2 2H142a2 2 0 0 1-2-2z" fill="#ede7f6"/><use xlink:href="#h" transform="matrix(1,0,0,1,156,346) translate(0 15.530273437500002)"/><use xlink:href="#f" transform="matrix(1,0,0,1,156,346) translate(0 35.14746093750001)"/><path d="M1080 322a2 2 0 0 1 2-2h616a2 2 0 0 1 2 2v406a2 2 0 0 1-2 2h-616a2 2 0 0 1-2-2z" fill="#ede7f6"/><use xlink:href="#i" transform="matrix(1,0,0,1,1096,336) translate(0 15.530273437500002)"/><use xlink:href="#g" transform="matrix(1,0,0,1,1096,336) translate(0 35.14746093750001)"/><path d="M280 402a2 2 0 0 1 2-2h436a2 2 0 0 1 2 2v316a2 2 0 0 1-2 2H282a2 2 0 0 1-2-2z" fill="#f9fbe7"/><use xlink:href="#j" transform="matrix(1,0,0,1,296,416) translate(0 15.530273437500002)"/><use xlink:href="#k" transform="matrix(1,0,0,1,296,416) translate(68.30050781249999 15.530273437500002)"/><use xlink:href="#l" transform="matrix(1,0,0,1,296,416) translate(152.60537109374997 15.530273437500002)"/><use xlink:href="#m" transform="matrix(1,0,0,1,296,416) translate(201.81999023437498 15.530273437500002)"/><use xlink:href="#n" transform="matrix(1,0,0,1,296,416) translate(0 35.14746093750001)"/><path d="M1220 402a2 2 0 0 1 2-2h436a2 2 0 0 1 2 2v316a2 2 0 0 1-2 2h-436a2 2 0 0 1-2-2z" fill="#f9fbe7"/><use xlink:href="#j" transform="matrix(1,0,0,1,1236,416) translate(0 15.530273437500002)"/><use xlink:href="#o" transform="matrix(1,0,0,1,1236,416) translate(68.30050781249999 15.530273437500002)"/><use xlink:href="#l" transform="matrix(1,0,0,1,1236,416) translate(152.60537109374997 15.530273437500002)"/><use xlink:href="#p" transform="matrix(1,0,0,1,1236,416) translate(201.81999023437498 15.530273437500002)"/><use xlink:href="#q" transform="matrix(1,0,0,1,1236,416) translate(0 35.14746093750001)"/><path d="M430-558a2 2 0 0 1 2-2h1066a2 2 0 0 1 2 2v676a2 2 0 0 1-2 2H432a2 2 0 0 1-2-2z" fill="#e3f2fd"/><use xlink:href="#r" transform="matrix(1,0,0,1,446,-544) translate(0 15.530273437500002)"/><use xlink:href="#s" transform="matrix(1,0,0,1,446,-544) translate(51.715810546875005 15.530273437500002)"/><use xlink:href="#t" transform="matrix(1,0,0,1,446,-544) translate(116.07653320312501 15.530273437500002)"/><use xlink:href="#u" transform="matrix(1,0,0,1,446,-544) translate(204.23126953125 15.530273437500002)"/><use xlink:href="#v" transform="matrix(1,0,0,1,446,-544) translate(245.47640625000003 15.530273437500002)"/><path d="M1777.57 297l-16.27-23.97c-1.3-1.9-1.3-4.16 0-6.06l16.27-23.97c1.3-1.9 3.65-3 6.2-3h32.47c2.54 0 4.9 1.16 6.2 3l16.26 23.97c1.3 1.9 1.3 4.16 0 6.06L1822.43 297c-1.3 1.9-3.65 3-6.2 3h-32.53c-2.54 0-4.9-1.16-6.13-3zm0 0z" fill="#0e62c2"/><path d="M1836.54 276.2l-21.97-18.66-12.93 5.27-6.18-5.26-10.1 8.64 6.75 5.74-6.73 10.54 20.48 17.43 2.33.1h8.06c2.54 0 4.9-1.1 6.2-3zm0 0" fill="#0851b0"/><path d="M1789.45 265.02h3.1v10.27h-3.1zM1807.4 263.76h3.1v11.48h-3.1zM1794.03 261.07h11.88v2.64h-11.87zM1794.03 276.35h11.88v2.63h-11.87z" fill="#fff"/><path d="M1795.02 266.34h-9.28c-.37 0-.62-.2-.62-.53v-7.9c0-.3.25-.52.62-.52h9.28c.36 0 .62.2.62.53v7.9c0 .28-.26.54-.62.54zm0 0zM1814.2 266.34h-9.28c-.37 0-.62-.2-.62-.53v-7.9c0-.3.25-.52.62-.52h9.28c.37 0 .62.2.62.53v7.9c0 .28-.25.54-.62.54zm0 0zM1795.02 282.67h-9.28c-.37 0-.62-.2-.62-.53v-7.9c0-.32.25-.53.62-.53h9.28c.36 0 .62.22.62.54v7.9c0 .27-.26.53-.62.53zm0 0zM1814.2 282.67h-9.28c-.37 0-.62-.2-.62-.53v-7.9c0-.32.25-.53.62-.53h9.28c.37 0 .62.22.62.54v7.9c0 .27-.25.53-.62.53zm0 0z" fill="#fff"/><use xlink:href="#w" transform="matrix(1,0,0,1,1760,305) translate(18.412919921874998 15.530273437500002)"/><use xlink:href="#x" transform="matrix(1,0,0,1,1760,305) translate(15.674687499999997 35.14746093750001)"/><use xlink:href="#y" transform="matrix(1,0,0,1,1760,305) translate(8.726933593749997 54.76464843750001)"/><path d="M566.46 571.1l-26.36-45.3c-2.05-3.64-5.64-5.7-9.86-5.8h-52.48c-4.22.1-7.8 2.16-9.86 5.8l-26.36 45.18c-2.05 3.52-2.05 7.62 0 11.26l26.36 45.52c2.05 3.75 5.5 5.92 9.86 6.03h52.48c4.22-.12 7.8-2.3 9.86-6.04l26.36-45.17c2.05-3.77 2.05-7.87 0-11.5z" stroke="#000" stroke-opacity="0" fill="#4285f4"/><path d="M558.87 595.47l-43.25-42.83-3.1 6.66-6.75-6.66-3.1 6.66-6.66-6.66-1.65 8.03-5.96.98-1.2 5.2-7.7 1.86 6.9 6.82-6.82 2.92 6.83 6.73-6.9 3 46.12 45.6h4.68c4.2-.17 7.78-2.28 9.84-6z" stroke="#000" stroke-opacity="0" fill-opacity=".07"/><path d="M509.82 570.05h-11.4c-.67 0-1.2.54-1.2 1.2v11.3c0 .65.53 1.2 1.2 1.2h11.4c.66-.03 1.17-.57 1.17-1.2v-11.3c0-.66-.55-1.2-1.22-1.2" stroke="#000" stroke-opacity="0" fill="#fff"/><path d="M527.88 569.13c.6 0 1.1-.45 1.1-1.1v-1.7c0-.6-.5-1.1-1.1-1.1h-5.56v-5.15c0-.7-.55-1.23-1.2-1.23h-5.2v-5.46c0-.6-.5-1.1-1.1-1.1H513c-.6 0-1.04.5-1.04 1.1v5.5h-5.86v-5.5c-.05-.6-.55-1.1-1.15-1.1h-1.74c-.6 0-1.1.5-1.1 1.1v5.5h-5.85v-5.5c0-.6-.5-1.1-1.1-1.1h-1.73c-.65 0-1.1.5-1.1 1.1v5.5h-5.22c-.64 0-1.2.5-1.2 1.18v5.1h-5.55c-.6 0-1.1.5-1.1 1.1v1.76c0 .6.5 1.1 1.1 1.1h5.56v5.74h-5.56c-.6 0-1.1.5-1.1 1.08v1.82c0 .6.5 1.08 1.1 1.08h5.56v5.8h-5.56c-.6 0-1.1.5-1.1 1.1v1.76c0 .6.5 1.03 1.1 1.03h5.56v5.16c0 .65.5 1.2 1.2 1.2h5.2v5.5c0 .6.46 1.08 1.1 1.08h1.75c.58 0 1.08-.5 1.08-1.08v-5.5h5.86v5.5c0 .6.5 1.08 1.1 1.08h1.73c.6 0 1.1-.5 1.1-1.08v-5.5h5.9v5.5c0 .6.5 1.08 1.1 1.08h1.8c.6 0 1.1-.5 1.1-1.08v-5.5h5.2c.65-.06 1.15-.55 1.15-1.2v-5.15h5.56c.6 0 1.1-.5 1.1-1.08v-1.72c0-.64-.5-1.1-1.1-1.1h-5.56v-5.8h5.56c.6 0 1.1-.48 1.1-1.07V576v-.04c0-.6-.5-1.08-1.1-1.08h-5.56v-5.75h5.56zm-9.64 21.78h-28.22v-27.97h28.22z" stroke="#000" stroke-opacity="0" fill="#fff"/><use xlink:href="#z" transform="matrix(1,0,0,1,440,638.79) translate(18.817708333333343 20.616319444444443)"/><use xlink:href="#A" transform="matrix(1,0,0,1,440,638.79) translate(30.60698784722223 51.86631944444444)"/><path d="M1526.46 571.1l-26.36-45.3c-2.05-3.64-5.64-5.7-9.86-5.8h-52.48c-4.22.1-7.8 2.16-9.86 5.8l-26.36 45.18c-2.05 3.52-2.05 7.62 0 11.26l26.36 45.52c2.05 3.75 5.5 5.92 9.86 6.03h52.48c4.22-.12 7.8-2.3 9.86-6.04l26.36-45.17c2.05-3.77 2.05-7.87 0-11.5z" stroke="#000" stroke-opacity="0" fill="#4285f4"/><path d="M1518.87 595.47l-43.25-42.83-3.1 6.66-6.75-6.66-3.1 6.66-6.66-6.66-1.65 8.03-5.96.98-1.2 5.2-7.7 1.86 6.9 6.82-6.82 2.92 6.83 6.73-6.9 3 46.12 45.6h4.68c4.2-.17 7.78-2.28 9.84-6z" stroke="#000" stroke-opacity="0" fill-opacity=".07"/><path d="M1469.82 570.05h-11.4c-.67 0-1.2.54-1.2 1.2v11.3c0 .65.53 1.2 1.2 1.2h11.4c.66-.03 1.17-.57 1.17-1.2v-11.3c0-.66-.55-1.2-1.22-1.2" stroke="#000" stroke-opacity="0" fill="#fff"/><path d="M1487.88 569.13c.6 0 1.1-.45 1.1-1.1v-1.7c0-.6-.5-1.1-1.1-1.1h-5.56v-5.15c0-.7-.55-1.23-1.2-1.23h-5.2v-5.46c0-.6-.5-1.1-1.1-1.1h-1.8c-.6 0-1.04.5-1.04 1.1v5.5h-5.86v-5.5c-.05-.6-.55-1.1-1.15-1.1h-1.74c-.6 0-1.1.5-1.1 1.1v5.5h-5.85v-5.5c0-.6-.5-1.1-1.1-1.1h-1.73c-.65 0-1.1.5-1.1 1.1v5.5h-5.22c-.64 0-1.2.5-1.2 1.18v5.1h-5.55c-.6 0-1.1.5-1.1 1.1v1.76c0 .6.5 1.1 1.1 1.1h5.56v5.74h-5.56c-.6 0-1.1.5-1.1 1.08v1.82c0 .6.5 1.08 1.1 1.08h5.56v5.8h-5.56c-.6 0-1.1.5-1.1 1.1v1.76c0 .6.5 1.03 1.1 1.03h5.56v5.16c0 .65.5 1.2 1.2 1.2h5.2v5.5c0 .6.46 1.08 1.1 1.08h1.74c.6 0 1.1-.5 1.1-1.08v-5.5h5.86v5.5c0 .6.5 1.08 1.1 1.08h1.73c.6 0 1.1-.5 1.1-1.08v-5.5h5.9v5.5c0 .6.5 1.08 1.1 1.08h1.8c.6 0 1.1-.5 1.1-1.08v-5.5h5.2c.65-.06 1.15-.55 1.15-1.2v-5.15h5.56c.6 0 1.1-.5 1.1-1.08v-1.72c0-.64-.5-1.1-1.1-1.1h-5.56v-5.8h5.56c.6 0 1.1-.48 1.1-1.07V576v-.04c0-.6-.5-1.08-1.1-1.08h-5.56v-5.75h5.56zm-9.64 21.78h-28.22v-27.97h28.22z" stroke="#000" stroke-opacity="0" fill="#fff"/><use xlink:href="#z" transform="matrix(1,0,0,1,1400,638.79) translate(18.817708333333343 20.616319444444443)"/><use xlink:href="#A" transform="matrix(1,0,0,1,1400,638.79) translate(30.60698784722223 51.86631944444444)"/><path d="M1368.08-418.85l-26.04-45.4c-2.04-3.55-2.04-7.95 0-11.5l26.04-45.4c2.04-3.55 5.8-5.75 9.88-5.75h52.08c4.07 0 7.84 2.2 9.88 5.75l26.04 45.4c2.04 3.55 2.04 7.95 0 11.5l-26.04 45.4c-2.04 3.55-5.8 5.75-9.88 5.75h-52.08c-4.07 0-7.84-2.2-9.88-5.75zm0 0z" fill="#0e62c2"/><path d="M1418.76-413.1l-38.9-39.17 6.04-8.16-.26-10.82 11.46-1.04-8-8.02 5.4-3.33 24.2-8.1 39.96 40.23-18.74 32.67c-2.04 3.55-5.8 5.75-9.88 5.75zm0 0" fill="#0851b0"/><path d="M1402.26-481.23h3.48v21.72h-3.48zM1385.08-473.24h2.55v14.97h-3.47v-14.04c0-.52.4-.94.92-.94zm0 0zM1420.37-473.24h2.55c.5 0 .92.42.92.93v14.03h-3.47zm0 0z" fill="#fff"/><path d="M1385.08-473.24h37.84c.24 0 .47.1.65.27.18.17.27.4.27.65v2.57h-39.68v-2.57c0-.5.4-.92.92-.92zm0 0zM1388.87-491.97h30.26V-480h-30.26zM1397.55-462.5h12.9v10.48h-12.9zM1379.45-461.72c0-.43.35-.8.8-.8h11.28c.45 0 .8.36.8.8v8.9c0 .45-.34.8-.8.8h-11.27c-.45 0-.8-.34-.8-.8zm0 0M1415.66-462.5h12.9v10.48h-12.9z" fill="#fff"/><use xlink:href="#B" transform="matrix(1,0,0,1,1340,-408.10499999999996) translate(21.790351562499993 15.530273437500002)"/><use xlink:href="#C" transform="matrix(1,0,0,1,1340,-408.10499999999996) translate(69.108642578125 15.530273437500002)"/><use xlink:href="#D" transform="matrix(1,0,0,1,1340,-408.10499999999996) translate(27.307685546875 35.14746093750001)"/><g filter="url(#E)"><path d="M710-518a2 2 0 0 1 2-2h326a2 2 0 0 1 2 2v56a2 2 0 0 1-2 2H712a2 2 0 0 1-2-2z" fill="#fff"/><use xlink:href="#F" transform="matrix(1,0,0,1,770,-500) translate(0 15.530273437500002)"/><use xlink:href="#G" transform="matrix(1,0,0,1,770,-500) translate(64.0828125 15.530273437500002)"/></g><g filter="url(#E)"><path d="M710-411.1a2 2 0 0 1 2-2h326a2 2 0 0 1 2 2v56a2 2 0 0 1-2 2H712a2 2 0 0 1-2-2z" fill="#fff"/><use xlink:href="#r" transform="matrix(1,0,0,1,770,-393.10499999999996) translate(0 15.530273437500002)"/><use xlink:href="#H" transform="matrix(1,0,0,1,770,-393.10499999999996) translate(51.715810546875005 15.530273437500002)"/><use xlink:href="#I" transform="matrix(1,0,0,1,770,-393.10499999999996) translate(87.13300781250001 15.530273437500002)"/></g><g filter="url(#E)"><path d="M710-298a2 2 0 0 1 2-2h326a2 2 0 0 1 2 2v56a2 2 0 0 1-2 2H712a2 2 0 0 1-2-2z" fill="#fff"/><use xlink:href="#J" transform="matrix(1,0,0,1,770,-280) translate(0 15.530273437500002)"/><use xlink:href="#K" transform="matrix(1,0,0,1,770,-280) translate(51.552333984375 15.530273437500002)"/><use xlink:href="#L" transform="matrix(1,0,0,1,770,-280) translate(97.35029296875 15.530273437500002)"/><use xlink:href="#M" transform="matrix(1,0,0,1,770,-280) translate(130.495166015625 15.530273437500002)"/><use xlink:href="#N" transform="matrix(1,0,0,1,770,-280) translate(149.491142578125 15.530273437500002)"/><use xlink:href="#O" transform="matrix(1,0,0,1,770,-280) translate(172.8928125 15.530273437500002)"/></g><g filter="url(#P)"><path d="M710-198a2 2 0 0 1 2-2h326a2 2 0 0 1 2 2v76a2 2 0 0 1-2 2H712a2 2 0 0 1-2-2z" fill="#fff"/><use xlink:href="#Q" transform="matrix(1,0,0,1,770,-180) translate(0 15.530273437500002)"/><use xlink:href="#R" transform="matrix(1,0,0,1,770,-180) translate(57.666357421875006 15.530273437500002)"/><use xlink:href="#S" transform="matrix(1,0,0,1,770,-180) translate(91.98008789062501 15.530273437500002)"/><use xlink:href="#T" transform="matrix(1,0,0,1,770,-180) translate(0 35.14746093750001)"/><use xlink:href="#U" transform="matrix(1,0,0,1,770,-180) translate(28.910830078125002 35.14746093750001)"/><use xlink:href="#M" transform="matrix(1,0,0,1,770,-180) translate(77.414326171875 35.14746093750001)"/><use xlink:href="#V" transform="matrix(1,0,0,1,770,-180) translate(96.41030273437501 35.14746093750001)"/><use xlink:href="#W" transform="matrix(1,0,0,1,770,-180) translate(164.710810546875 35.14746093750001)"/><use xlink:href="#X" transform="matrix(1,0,0,1,770,-180) translate(223.268115234375 35.14746093750001)"/></g><g filter="url(#E)"><path d="M710-78a2 2 0 0 1 2-2h326a2 2 0 0 1 2 2v56a2 2 0 0 1-2 2H712a2 2 0 0 1-2-2z" fill="#fff"/><use xlink:href="#J" transform="matrix(1,0,0,1,770,-60) translate(0 15.530273437500002)"/><use xlink:href="#Y" transform="matrix(1,0,0,1,770,-60) translate(51.552333984375 15.530273437500002)"/></g><g filter="url(#E)"><path d="M710 22a2 2 0 0 1 2-2h326a2 2 0 0 1 2 2v56a2 2 0 0 1-2 2H712a2 2 0 0 1-2-2z" fill="#fff"/><use xlink:href="#j" transform="matrix(1,0,0,1,770,40) translate(0 15.530273437500002)"/><use xlink:href="#W" transform="matrix(1,0,0,1,770,40) translate(68.30050781249999 15.530273437500002)"/><use xlink:href="#Z" transform="matrix(1,0,0,1,770,40) translate(126.85781249999998 15.530273437500002)"/></g><g filter="url(#E)"><path d="M1080 22a2 2 0 0 1 2-2h326a2 2 0 0 1 2 2v56a2 2 0 0 1-2 2h-326a2 2 0 0 1-2-2z" fill="#fff"/><use xlink:href="#j" transform="matrix(1,0,0,1,1140,40) translate(0 15.530273437500002)"/><use xlink:href="#aa" transform="matrix(1,0,0,1,1140,40) translate(68.30050781249999 15.530273437500002)"/><use xlink:href="#ab" transform="matrix(1,0,0,1,1140,40) translate(121.10343749999998 15.530273437500002)"/><use xlink:href="#Z" transform="matrix(1,0,0,1,1140,40) translate(171.47874023437498 15.530273437500002)"/></g><path d="M875-459.5v30" stroke="#3a414a" fill="none"/><path d="M875.48-459.5h-.96v-.5h.96z" stroke="#3a414a" stroke-width=".05" fill="#3a414a"/><path d="M875-414.72L870.37-429h9.26z" stroke="#3a414a" fill="#3a414a"/><path d="M875-352.6v36.22" stroke="#3a414a" fill="none"/><path d="M875.48-352.6h-.96v-.5h.96z" stroke="#3a414a" stroke-width=".05" fill="#3a414a"/><path d="M875-301.62l-4.63-14.26h9.26z" stroke="#3a414a" fill="#3a414a"/><path d="M875-239.5v23.12" stroke="#3a414a" fill="none"/><path d="M875.48-239.5h-.96v-.5h.96z" stroke="#3a414a" stroke-width=".05" fill="#3a414a"/><path d="M875-201.62l-4.63-14.26h9.26z" stroke="#3a414a" fill="#3a414a"/><path d="M875-119.5v23.12" stroke="#3a414a" fill="none"/><path d="M875.48-119.5h-.96v-.5h.96z" stroke="#3a414a" stroke-width=".05" fill="#3a414a"/><path d="M875-81.62l-4.63-14.26h9.26z" stroke="#3a414a" fill="#3a414a"/><path d="M875-19.5V3.62" stroke="#3a414a" fill="none"/><path d="M875.48-19.5h-.96v-.5h.96z" stroke="#3a414a" stroke-width=".05" fill="#3a414a"/><path d="M875 18.38l-4.63-14.26h9.26z" stroke="#3a414a" fill="#3a414a"/><path d="M1079.5 50h-23.12" stroke="#3a414a" fill="none"/><path d="M1080 50.48h-.5v-.95h.5z" stroke="#3a414a" stroke-width=".05" fill="#3a414a"/><path d="M1041.62 50l14.26-4.63v9.27z" stroke="#3a414a" fill="#3a414a"/><path d="M820 172h30.26v7.55H820V172zM820 232.45h30.26V240H820v-7.55zM820 202.26h30.26v7.55H820v-7.54zM857.74 172H888v7.55h-30.26V172zM857.74 232.45H888V240h-30.26v-7.55zM857.74 202.26H888v7.55h-30.26v-7.54zM838.9 187.1h30.26v7.54H838.9v-7.54zM838.9 217.3h30.26v7.54H838.9v-7.55zM820 187.1h11.36v7.54H820v-7.54zM820 217.3h11.36v7.54H820v-7.55zM876.64 187.1h11.3v7.54h-11.3v-7.54zM876.64 217.3h11.3v7.54h-11.3v-7.55z" stroke="#000" stroke-opacity="0" fill="#4285f4"/><path d="M820.68 172.68v66.64h66.64v-66.64z" stroke="#000" stroke-opacity="0" fill-opacity="0"/><use xlink:href="#ac" transform="matrix(1,0,0,1,820,245) translate(-4.167317708333329 20.616319444444443)"/><use xlink:href="#ad" transform="matrix(1,0,0,1,820,245) translate(6.721354166666671 51.86631944444444)"/><path d="M874.64 80.34L591.88 348.72" stroke="#3a414a" fill="none"/><path d="M874.96 80.7l-.66-.7h1.4z" stroke="#3a414a" stroke-width=".05" fill="#3a414a"/><path d="M581.17 358.9l7.16-13.2 6.38 6.73z" stroke="#3a414a" fill="#3a414a"/><path d="M875.44 80.23l510.1 272.06" stroke="#3a414a" fill="none"/><path d="M875.23 80.66L874 80h1.58z" stroke="#3a414a" stroke-width=".05" fill="#3a414a"/><path d="M1398.57 359.24l-14.77-2.63 4.37-8.17z" stroke="#3a414a" fill="#3a414a"/><path d="M33.2 636.64v6.64h18v-6.64zM11.4 615.52H0v6.68h15.68c-1.27-2.5-2.54-4.5-4.27-6.68zM16 657.76H2.4v6.68h9.17c1.76-2.2 3.1-4.2 4.43-6.68zM19.94 639.96c.1-1.17.1-2.15 0-3.32H-10v6.64h29.94c.1-1.17.1-2.15 0-3.32z" stroke="#000" stroke-opacity="0" fill="#4285f4"/><path d="M-13.28 641.88c-1.06.02-1.94-.82-1.96-1.88-.02-1.05.82-1.94 1.88-1.96 1.05-.02 1.94.82 1.96 1.88v.04c0 1.04-.84 1.9-1.88 1.92zm0-8.6h-.04c-3.7 0-6.68 3-6.68 6.68 0 3.7 3 6.68 6.68 6.68 3.7 0 6.68-3 6.68-6.68 0-3.67-2.97-6.65-6.64-6.68zM-3.28 662.96c-1.06.02-1.94-.83-1.96-1.88-.02-1.06.82-1.94 1.88-1.96 1.05-.02 1.94.82 1.96 1.88v.04c.02 1.04-.8 1.9-1.84 1.92h-.04zm0-8.56h-.08c-3.7.03-6.67 3.03-6.64 6.72.03 3.7 3.03 6.67 6.72 6.64 3.7-.03 6.67-3.03 6.64-6.72-.03-3.66-2.98-6.6-6.64-6.64zM-3.28 620.82c-1.07.02-1.94-.82-1.96-1.87-.03-1.07.8-1.94 1.88-1.97 1.06-.02 1.94.82 1.95 1.9v.07c0 1.02-.85 1.87-1.88 1.87zm0-8.55c-.36-.04-.68-.04-1.04 0-3.67.28-6.43 3.48-6.13 7.17.28 3.67 3.48 6.43 7.17 6.13 3.3-.25 5.88-2.82 6.13-6.13.3-3.7-2.46-6.9-6.13-7.17z" stroke="#000" stroke-opacity="0" fill="#669df6"/><path d="M46.72 650v-20L60 640l-13.28 10zM10.03 680l-3.42-6c10.93-8.4 16.72-20.16 16.74-34-.14-13.76-5.9-25.52-16.78-34l3.47-6c13 9.76 19.95 23.68 19.97 40 .02 16.32-6.94 30.24-19.97 40z" stroke="#000" stroke-opacity="0" fill="#4285f4"/><path d="M-20 600v80h80v-80z" stroke="#000" stroke-opacity="0" fill-opacity="0"/><use xlink:href="#ae" transform="matrix(1,0,0,1,-20,685) translate(11.343315972222221 20.616319444444443)"/><use xlink:href="#af" transform="matrix(1,0,0,1,-20,685) translate(18.103298611111114 51.86631944444444)"/><path d="M993.2 636.64v6.64h18v-6.64zM971.4 615.52H960v6.68h15.68c-1.27-2.5-2.54-4.5-4.26-6.68zM976 657.76h-13.6v6.68h9.17c1.76-2.2 3.1-4.2 4.43-6.68zM979.94 639.96c.1-1.17.1-2.15 0-3.32H950v6.64h29.94c.1-1.17.1-2.15 0-3.32z" stroke="#000" stroke-opacity="0" fill="#4285f4"/><path d="M946.72 641.88c-1.06.02-1.94-.82-1.96-1.88-.02-1.05.82-1.94 1.88-1.96 1.06-.02 1.94.82 1.96 1.88v.04c0 1.04-.84 1.9-1.88 1.92zm0-8.6h-.04c-3.7 0-6.68 3-6.68 6.68 0 3.7 3 6.68 6.68 6.68 3.7 0 6.68-3 6.68-6.68 0-3.67-2.97-6.65-6.64-6.68zM956.72 662.96c-1.06.02-1.94-.83-1.96-1.88-.02-1.06.82-1.94 1.88-1.96 1.06-.02 1.94.82 1.96 1.88v.04c.02 1.04-.8 1.9-1.84 1.92h-.04zm0-8.56h-.08c-3.7.03-6.67 3.03-6.64 6.72.03 3.7 3.03 6.67 6.72 6.64 3.7-.03 6.67-3.03 6.64-6.72-.03-3.66-2.98-6.6-6.64-6.64zM956.72 620.82c-1.07.02-1.94-.82-1.96-1.87-.03-1.07.8-1.94 1.88-1.97 1.06-.02 1.94.82 1.95 1.9v.07c0 1.02-.85 1.87-1.88 1.87zm0-8.55c-.36-.04-.68-.04-1.04 0-3.67.28-6.43 3.48-6.13 7.17.28 3.67 3.48 6.43 7.17 6.13 3.3-.25 5.88-2.82 6.13-6.13.3-3.7-2.46-6.9-6.13-7.17z" stroke="#000" stroke-opacity="0" fill="#669df6"/><path d="M1006.72 650v-20l13.28 10-13.28 10zM970.03 680l-3.42-6c10.93-8.4 16.72-20.16 16.74-34-.14-13.76-5.9-25.52-16.78-34l3.47-6c13 9.76 19.95 23.68 19.97 40 .02 16.32-6.94 30.24-19.97 40z" stroke="#000" stroke-opacity="0" fill="#4285f4"/><path d="M940 600v80h80v-80z" stroke="#000" stroke-opacity="0" fill-opacity="0"/><g><use xlink:href="#ag" transform="matrix(1,0,0,1,940,685) translate(11.343315972222221 20.616319444444443)"/><use xlink:href="#ah" transform="matrix(1,0,0,1,940,685) translate(18.103298611111114 51.86631944444444)"/></g><path d="M60.77 641.3l274.37 459" stroke="#3a414a" stroke-width="3" fill="none"/><path d="M62.05 640.56L60 641.8v-4.67z" stroke="#3a414a" stroke-width=".05" fill="#3a414a"/><path d="M343.22 1113.83l-11.3-9.86 7.96-4.76z" stroke="#3a414a" stroke-width="3" fill="#3a414a"/><path d="M938.84 640.95l-522.9 428.97" stroke="#3a414a" stroke-width="3" fill="none"/><path d="M940 641.9l-.25.22-1.88-2.28 2.13-1.75z" stroke="#3a414a" stroke-width=".05" fill="#3a414a"/><path d="M403.75 1079.92l8.1-12.63 5.87 7.15z" stroke="#3a414a" stroke-width="3" fill="#3a414a"/><path d="M720-947.33c0 6.9-2.04 12.4-6.12 16.5-6.72 6.68-16.32 6.83-17.16 6.83h-12.96v-5.55l12.96.08c.12 0 8.16-.08 13.32-5.32 3-2.96 4.56-7.2 4.56-12.53 0-3.2-.96-8.13-8.64-12.85-3.96-2.5-7.68-3.26-9.12-3.57-1.44-.23-2.52-1.52-2.28-3.04-.48-5.7-3.12-9.8-7.44-11.08-3.6-1.07-7.44.22-9.84 3.34-.6.76-1.56 1.22-2.64 1.06-.96-.15-1.8-.83-2.16-1.82-1.68-4.56-4.08-8.44-7.2-11.4-3.84-3.72-14.4-11.7-29.28-5.62-8.52 3.5-15.24 13.52-15.24 22.8 0 1.06 0 2.05.12 3.1.24 1.3-.6 2.6-1.8 2.98-.12 0-.24.07-.36.07-5.04 1.3-13.32 5.1-13.32 16.5 0 8.66 4.92 13.45 9.12 15.95 1.32.84 3 1.3 4.68 1.3l16.68.07v5.47H619.2c-2.64 0-5.28-.76-7.56-2.12-4.32-2.6-11.64-8.82-11.64-20.68 0-10.18 5.64-18 15.36-21.2 0-.46-.12-1-.12-1.44 0-11.56 8.04-23.56 18.72-27.9 12.36-5.1 25.56-2.58 35.16 6.7 2.76 2.73 5.04 6 6.96 9.8 3.6-2.74 8.28-3.58 12.72-2.2 5.88 1.82 9.96 7.14 11.04 14.43 3 .77 6.24 2.14 9 3.8 7.56 4.65 11.16 10.42 11.16 17.57zm-64.56-3.88l-9.72-9.9v37.02h-5.52v-36.7l-9.36 9.65L627-955l14.16-14.52c.48-.54 1.2-.84 1.92-.84s1.44.3 1.92.84l14.28 14.44zm33.36 5.7l3.84 3.94-14.28 14.44c-.48.54-1.2.84-1.92.84s-1.44-.3-1.92-.84l-14.16-14.5 3.84-3.9 9.36 9.6v-31.7h5.52v32zm-38.88 21.42v-5.47h19.32v5.55z" stroke="#000" stroke-opacity="0" fill="#232f3d"/><path d="M635.9-924.07l33.27.08h27.7l13-7.22 7.53-10.93-.7-14.3-18.23-9.75-5.93-12.03-8.77-2-9.24 2.44-15.16-17.4-18-2.6-16.66 9.24-7.4 16.38-1.7 6.86-11.63 10.4-.57 16.54 9.8 10.7z" stroke="#000" stroke-opacity="0" fill-opacity="0"/><g><use xlink:href="#ai" transform="matrix(1,0,0,1,570,-915) translate(49.41297743055556 21.52777777777778)"/></g><path d="M460 1132.67c0 6.9-2.04 12.4-6.12 16.5-6.72 6.68-16.32 6.83-17.16 6.83h-12.96v-5.55l12.96.08c.12 0 8.16-.08 13.32-5.32 3-2.96 4.56-7.2 4.56-12.53 0-3.2-.96-8.13-8.64-12.85-3.96-2.5-7.68-3.26-9.12-3.57-1.44-.23-2.52-1.52-2.28-3.04-.48-5.7-3.12-9.8-7.44-11.08-3.6-1.07-7.44.22-9.84 3.34-.6.76-1.56 1.22-2.64 1.06-.96-.15-1.8-.83-2.16-1.82-1.68-4.56-4.08-8.44-7.2-11.4-3.84-3.72-14.4-11.7-29.28-5.62-8.52 3.5-15.24 13.52-15.24 22.8 0 1.06 0 2.05.12 3.1.24 1.3-.6 2.6-1.8 2.98-.12 0-.24.07-.36.07-5.04 1.3-13.32 5.1-13.32 16.5 0 8.66 4.92 13.45 9.12 15.95 1.32.84 3 1.3 4.68 1.3l16.68.07v5.47H359.2c-2.64 0-5.28-.76-7.56-2.12-4.32-2.6-11.64-8.82-11.64-20.68 0-10.18 5.64-18 15.36-21.2 0-.46-.12-1-.12-1.44 0-11.56 8.04-23.56 18.72-27.9 12.36-5.1 25.56-2.58 35.16 6.7 2.76 2.73 5.04 6 6.96 9.8 3.6-2.74 8.28-3.58 12.72-2.2 5.88 1.82 9.96 7.14 11.04 14.43 3 .77 6.24 2.14 9 3.8 7.56 4.65 11.16 10.42 11.16 17.57zm-64.56-3.88l-9.72-9.9v37.02h-5.52v-36.7l-9.36 9.65L367 1125l14.16-14.52c.48-.54 1.2-.84 1.92-.84s1.44.3 1.92.84l14.28 14.44zm33.36 5.7l3.84 3.94-14.28 14.44c-.48.54-1.2.84-1.92.84s-1.44-.3-1.92-.84l-14.16-14.5 3.84-3.9 9.36 9.6v-31.7h5.52v32zm-38.88 21.42v-5.47h19.32v5.55z" stroke="#000" stroke-opacity="0" fill="#232f3d"/><path d="M375.9 1155.93l33.27.08h27.7l13-7.22 7.53-10.93-.7-14.3-18.23-9.75-5.93-12.03-8.77-2-9.24 2.44-15.16-17.4-18-2.6-16.66 9.24-7.4 16.38-1.7 6.86-11.63 10.4-.57 16.54 9.8 10.7z" stroke="#000" stroke-opacity="0" fill-opacity="0"/><g><use xlink:href="#aj" transform="matrix(1,0,0,1,310,1165) translate(49.41297743055556 21.52777777777778)"/></g><g filter="url(#ak)"><path d="M280 902a2 2 0 0 1 2-2h198a2 2 0 0 1 2 2v56a2 2 0 0 1-2 2H282a2 2 0 0 1-2-2z" fill="#fff"/><use xlink:href="#al" transform="matrix(1,0,0,1,340,920) translate(0 20.616319444444443)"/><use xlink:href="#am" transform="matrix(1,0,0,1,340,920) translate(72.39583333333333 20.616319444444443)"/></g><path d="M714-962l285.38-1.87" stroke="#3a414a" stroke-width="3" fill="none"/><path d="M714.04-960.78l-3.4-2.68 3.38-.02z" stroke="#3a414a" stroke-width=".05" fill="#3a414a"/><path d="M1015.15-963.97l-14.24 4.73-.05-9.27z" stroke="#3a414a" stroke-width="3" fill="#3a414a"/><path d="M1718.66-963.33L927.1-569.2" stroke="#3a414a" stroke-width="3" fill="none"/><path d="M1720-962.35l-.72.36-1.32-2.63 2.04-1.02z" stroke="#3a414a" stroke-width=".05" fill="#3a414a"/><path d="M913-562.16l10.7-10.5 4.13 8.3z" stroke="#3a414a" stroke-width="3" fill="#3a414a"/><g filter="url(#an)"><path d="M1020-1038a2 2 0 0 1 2-2h696a2 2 0 0 1 2 2v148a2 2 0 0 1-2 2h-696a2 2 0 0 1-2-2z" fill="#fff"/><use xlink:href="#ao" transform="matrix(1,0,0,1,1080,-1020) translate(0 24.739583333333336)"/><use xlink:href="#ap" transform="matrix(1,0,0,1,1080,-1020) translate(65.63802083333333 24.739583333333336)"/><use xlink:href="#aq" transform="matrix(1,0,0,1,1080,-1020) translate(0 55.98958333333334)"/><use xlink:href="#ar" transform="matrix(1,0,0,1,1080,-1020) translate(0 87.23958333333334)"/><use xlink:href="#as" transform="matrix(1,0,0,1,1080,-1020) translate(68.359375 87.23958333333334)"/><use xlink:href="#at" transform="matrix(1,0,0,1,1080,-1020) translate(155.8984375 87.23958333333334)"/><use xlink:href="#au" transform="matrix(1,0,0,1,1080,-1020) translate(257.8385416666667 87.23958333333334)"/></g><defs><radialGradient gradientUnits="userSpaceOnUse" id="a" fx="-234985.2" fy="390557.8" cx="236725.2" cy="-390337.8" r="21856.4"><stop offset="0%" stop-color="#fff" stop-opacity=".1"/><stop offset="100%" stop-color="#fff" stop-opacity="0"/></radialGradient><path d="M651-255l416-1201h210L737 0H567L28-1456h209" id="av"/><path d="M1216-1011c-1 297-202 441-512 441H361V0H169v-1456h537c297-6 510 164 510 445zm-192 2c1-178-126-288-307-289H361v571h345c196 1 318-92 318-282" id="aw"/><path d="M688-137c238 0 323-102 359-325h193c-32 297-228 482-552 482-361 0-569-299-569-680 0-197 8-360 73-497 88-186 257-317 513-319 316-2 509 195 535 488h-193c-31-212-118-330-342-330-272 0-397 224-393 523v141c-3 282 115 517 376 517" id="ax"/><g id="b"><use transform="matrix(0.008173828125000001,0,0,0.008173828125000001,0,0)" xlink:href="#av"/><use transform="matrix(0.008173828125000001,0,0,0.008173828125000001,10.650498046875,0)" xlink:href="#aw"/><use transform="matrix(0.008173828125000001,0,0,0.008173828125000001,21.211083984375,0)" xlink:href="#ax"/></g><path d="M1288 0h-193L362-1122V0H169v-1456h193l735 1127v-1127h191V0" id="ay"/><path d="M599-131c141 0 220-65 285-146l113 88C906-50 770 20 589 20 281 21 93-214 93-545c0-223 93-397 233-485 74-48 154-72 240-72 300 2 449 218 445 537v77H278c0 197 129 357 321 357zm227-509c-3-180-88-310-260-310-170 0-264 140-282 310h542" id="az"/><path d="M456 20C285 20 205-92 206-268v-671H9v-143h197v-262h185v262h202v143H391v671c-9 125 92 149 207 118V0c-49 13-96 20-142 20" id="aA"/><path d="M1098-255l208-827h185L1176 0h-150L763-820 507 0H357L43-1082h184l213 810 252-810h149" id="aB"/><path d="M584 20C278 26 81-227 91-551c10-320 175-545 491-551 308-5 503 247 494 573-9 322-175 543-492 549zm-2-970c-208 0-305 185-305 421 0 216 106 398 307 398 211 0 307-186 307-420 0-214-109-399-309-399" id="aC"/><path d="M663-916c-163-27-288 18-338 148V0H140v-1082h180l3 125c61-97 147-145 258-145 36 0 63 5 82 14v172" id="aD"/><path d="M442-501L326-380V0H141v-1536h185v929c135-169 291-317 436-475h225L566-630 1036 0H819" id="aE"/><path d="M248 11c-71 0-114-43-114-108 0-67 42-112 114-112s116 45 116 112c-1 65-45 108-116 108zm1-883c-71 0-114-43-114-108 0-67 42-112 114-112s116 45 116 112c-1 65-45 108-116 108" id="aF"/><g id="c"><use transform="matrix(0.008173828125000001,0,0,0.008173828125000001,0,0)" xlink:href="#ay"/><use transform="matrix(0.008173828125000001,0,0,0.008173828125000001,11.9337890625,0)" xlink:href="#az"/><use transform="matrix(0.008173828125000001,0,0,0.008173828125000001,20.802392578125,0)" xlink:href="#aA"/><use transform="matrix(0.008173828125000001,0,0,0.008173828125000001,26.27068359375,0)" xlink:href="#aB"/><use transform="matrix(0.008173828125000001,0,0,0.008173828125000001,38.850205078125,0)" xlink:href="#aC"/><use transform="matrix(0.008173828125000001,0,0,0.008173828125000001,48.397236328125004,0)" xlink:href="#aD"/><use transform="matrix(0.008173828125000001,0,0,0.008173828125000001,54.06169921875001,0)" xlink:href="#aE"/><use transform="matrix(0.008173828125000001,0,0,0.008173828125000001,62.546132812500005,0)" xlink:href="#aF"/></g><path d="M341 0H156v-1536h185V0" id="aG"/><path d="M634-1102c292 0 422 254 422 573 0 298-143 547-420 549-137 0-242-48-317-145L310 0H140v-1536h185v573c75-93 178-139 309-139zm-44 965c207 0 281-175 281-413 0-224-79-395-283-395-122 0-210 57-263 170v468c57 113 145 170 265 170" id="aH"/><path d="M525-543H37v-151h488v151" id="aI"/><path d="M561-1102c238-4 403 126 403 351v498c0 99 13 178 38 237V0H808c-11-21-19-59-26-114C696-25 593 20 474 20c-199 0-368-130-365-320 4-251 214-359 490-356h180v-85c-1-135-86-212-229-212-115 0-232 67-233 171H131c20-205 206-316 430-320zM294-326c0 117 90 185 207 185 122 0 239-75 278-162v-222H634c-227 0-340 66-340 199" id="aJ"/><g id="d"><use transform="matrix(0.008173828125000001,0,0,0.008173828125000001,0,0)" xlink:href="#aG"/><use transform="matrix(0.008173828125000001,0,0,0.008173828125000001,4.062392578125,0)" xlink:href="#aH"/><use transform="matrix(0.008173828125000001,0,0,0.008173828125000001,13.45412109375,0)" xlink:href="#aI"/><use transform="matrix(0.008173828125000001,0,0,0.008173828125000001,18.072333984375,0)" xlink:href="#aG"/><use transform="matrix(0.008173828125000001,0,0,0.008173828125000001,22.1347265625,0)" xlink:href="#aJ"/><use transform="matrix(0.008173828125000001,0,0,0.008173828125000001,31.24037109375,0)" xlink:href="#aH"/></g><path d="M1161-1018c0 201-122 330-278 388l342 618V0h-206L703-589H361V0H168v-1456h482c310-2 511 139 511 438zm-193 0c0-187-120-280-313-280H361v552h295c179 3 313-101 312-272" id="aK"/><path d="M521 20C240 20 96-239 96-550c0-303 147-552 427-552 132 0 235 47 309 140l9-120h169V-26c4 277-183 454-459 452-165-1-334-81-400-187l96-111c79 98 176 147 291 147 180 1 288-109 286-290v-93C750-23 649 20 521 20zm48-965c-209 0-287 178-287 416 0 217 86 392 285 392 117 0 202-53 257-159v-494c-57-103-142-155-255-155" id="aL"/><path d="M341 0H156v-1082h185V0zm-91-1264c-68 0-108-42-109-105 0-62 41-107 109-107s110 44 110 107-42 105-110 105" id="aM"/><path d="M589-945c-131 0-219 81-264 174V0H140v-1082h175l6 136c83-104 191-156 324-156 229 0 346 129 346 387V0H806v-716c-2-153-65-229-217-229" id="aN"/><g id="e"><use transform="matrix(0.008173828125000001,0,0,0.008173828125000001,0,0)" xlink:href="#aK"/><use transform="matrix(0.008173828125000001,0,0,0.008173828125000001,10.307197265625001,0)" xlink:href="#az"/><use transform="matrix(0.008173828125000001,0,0,0.008173828125000001,19.175800781250004,0)" xlink:href="#aL"/><use transform="matrix(0.008173828125000001,0,0,0.008173828125000001,28.567529296875005,0)" xlink:href="#aM"/><use transform="matrix(0.008173828125000001,0,0,0.008173828125000001,32.62992187500001,0)" xlink:href="#aC"/><use transform="matrix(0.008173828125000001,0,0,0.008173828125000001,42.17695312500001,0)" xlink:href="#aN"/><use transform="matrix(0.008173828125000001,0,0,0.008173828125000001,51.41337890625002,0)" xlink:href="#aF"/></g><path d="M491 20c-241-1-355-148-355-398v-704h185v699c0 164 67 246 200 246 141 0 235-53 282-158v-787h185V0H812l-4-107C736-22 630 20 491 20" id="aO"/><path d="M538-131c121 0 232-49 232-156 0-50-20-88-56-117-73-60-334-92-420-143-92-55-162-110-162-238 0-190 192-317 400-317 223 0 414 129 413 338H759c0-108-110-186-227-186-119 0-215 53-215 159 0 45 18 78 53 101 76 52 331 90 416 139 98 57 169 115 169 251C955-92 760 20 538 20c-176 0-314-68-386-174-38-55-57-115-57-179h185c6 129 116 202 258 202" id="aP"/><path d="M277-555c0 244 77 420 297 424 127 2 249-93 255-210h175C980-127 805 20 574 20 258 20 81-222 92-562c11-319 164-533 481-540 237-5 426 165 431 392H829c-7-133-115-242-256-240-209 4-296 166-296 395" id="aQ"/><path d="M729 0H543v-1233l-373 137v-168l530-199h29V0" id="aR"/><g id="f"><use transform="matrix(0.008173828125000001,0,0,0.008173828125000001,0,0)" xlink:href="#aO"/><use transform="matrix(0.008173828125000001,0,0,0.008173828125000001,9.228251953125001,0)" xlink:href="#aP"/><use transform="matrix(0.008173828125000001,0,0,0.008173828125000001,17.859814453125004,0)" xlink:href="#aI"/><use transform="matrix(0.008173828125000001,0,0,0.008173828125000001,22.478027343750004,0)" xlink:href="#aQ"/><use transform="matrix(0.008173828125000001,0,0,0.008173828125000001,31.240371093750007,0)" xlink:href="#az"/><use transform="matrix(0.008173828125000001,0,0,0.008173828125000001,40.10897460937501,0)" xlink:href="#aN"/><use transform="matrix(0.008173828125000001,0,0,0.008173828125000001,49.34540039062501,0)" xlink:href="#aA"/><use transform="matrix(0.008173828125000001,0,0,0.008173828125000001,54.81369140625001,0)" xlink:href="#aD"/><use transform="matrix(0.008173828125000001,0,0,0.008173828125000001,60.15120117187501,0)" xlink:href="#aJ"/><use transform="matrix(0.008173828125000001,0,0,0.008173828125000001,69.25684570312501,0)" xlink:href="#aG"/><use transform="matrix(0.008173828125000001,0,0,0.008173828125000001,73.31923828125001,0)" xlink:href="#aR"/></g><path d="M589-945c-131 0-219 81-264 174V0H140v-1536h185v585c82-101 189-151 320-151 229 0 346 129 346 387V0H806v-716c-2-153-65-229-217-229" id="aS"/><g id="g"><use transform="matrix(0.008173828125000001,0,0,0.008173828125000001,0,0)" xlink:href="#aJ"/><use transform="matrix(0.008173828125000001,0,0,0.008173828125000001,9.10564453125,0)" xlink:href="#aP"/><use transform="matrix(0.008173828125000001,0,0,0.008173828125000001,17.73720703125,0)" xlink:href="#aM"/><use transform="matrix(0.008173828125000001,0,0,0.008173828125000001,21.799599609375,0)" xlink:href="#aJ"/><use transform="matrix(0.008173828125000001,0,0,0.008173828125000001,30.905244140625,0)" xlink:href="#aI"/><use transform="matrix(0.008173828125000001,0,0,0.008173828125000001,35.523457031250004,0)" xlink:href="#aN"/><use transform="matrix(0.008173828125000001,0,0,0.008173828125000001,44.7598828125,0)" xlink:href="#aC"/><use transform="matrix(0.008173828125000001,0,0,0.008173828125000001,54.306914062500006,0)" xlink:href="#aD"/><use transform="matrix(0.008173828125000001,0,0,0.008173828125000001,60.38006835937501,0)" xlink:href="#aA"/><use transform="matrix(0.008173828125000001,0,0,0.008173828125000001,65.84835937500002,0)" xlink:href="#aS"/><use transform="matrix(0.008173828125000001,0,0,0.008173828125000001,75.06843750000002,0)" xlink:href="#az"/><use transform="matrix(0.008173828125000001,0,0,0.008173828125000001,83.93704101562501,0)" xlink:href="#aJ"/><use transform="matrix(0.008173828125000001,0,0,0.008173828125000001,93.04268554687502,0)" xlink:href="#aP"/><use transform="matrix(0.008173828125000001,0,0,0.008173828125000001,101.67424804687502,0)" xlink:href="#aA"/><use transform="matrix(0.008173828125000001,0,0,0.008173828125000001,107.14253906250003,0)" xlink:href="#aR"/></g><g id="h"><use transform="matrix(0.008173828125000001,0,0,0.008173828125000001,0,0)" xlink:href="#aP"/><use transform="matrix(0.008173828125000001,0,0,0.008173828125000001,8.631562500000001,0)" xlink:href="#aO"/><use transform="matrix(0.008173828125000001,0,0,0.008173828125000001,17.859814453125004,0)" xlink:href="#aH"/><use transform="matrix(0.008173828125000001,0,0,0.008173828125000001,27.251542968750005,0)" xlink:href="#aN"/><use transform="matrix(0.008173828125000001,0,0,0.008173828125000001,36.48796875000001,0)" xlink:href="#az"/><use transform="matrix(0.008173828125000001,0,0,0.008173828125000001,45.356572265625005,0)" xlink:href="#aA"/><use transform="matrix(0.008173828125000001,0,0,0.008173828125000001,50.82486328125,0)" xlink:href="#aI"/><use transform="matrix(0.008173828125000001,0,0,0.008173828125000001,55.443076171875006,0)" xlink:href="#aR"/></g><path d="M569-1476c255 0 440 146 439 390 0 143-91 314-274 512L344-151h731V0H121v-133l504-560c75-85 125-155 155-207 105-184 6-424-211-424-183 0-293 113-291 297H93c-3-270 199-449 476-449" id="aT"/><g id="i"><use transform="matrix(0.008173828125000001,0,0,0.008173828125000001,0,0)" xlink:href="#aP"/><use transform="matrix(0.008173828125000001,0,0,0.008173828125000001,8.631562500000001,0)" xlink:href="#aO"/><use transform="matrix(0.008173828125000001,0,0,0.008173828125000001,17.859814453125004,0)" xlink:href="#aH"/><use transform="matrix(0.008173828125000001,0,0,0.008173828125000001,27.251542968750005,0)" xlink:href="#aN"/><use transform="matrix(0.008173828125000001,0,0,0.008173828125000001,36.48796875000001,0)" xlink:href="#az"/><use transform="matrix(0.008173828125000001,0,0,0.008173828125000001,45.356572265625005,0)" xlink:href="#aA"/><use transform="matrix(0.008173828125000001,0,0,0.008173828125000001,50.82486328125,0)" xlink:href="#aI"/><use transform="matrix(0.008173828125000001,0,0,0.008173828125000001,55.443076171875006,0)" xlink:href="#aT"/></g><path d="M1160-420C1159-145 963 0 674 0H169v-1456h476c294-1 476 112 476 388 0 153-99 253-216 302 146 38 255 167 255 346zM678-157c171 2 289-95 289-261 0-175-95-263-286-263H361v524h317zm250-912c-2-172-104-229-283-229H361v463h290c157 3 278-84 277-234" id="aU"/><path d="M520 20C244 20 95-247 95-550c0-298 151-550 427-552 127 0 227 43 301 130v-564h185V0H838l-9-116C755-25 652 20 520 20zm48-965c-210 0-288 177-288 416 0 218 87 392 286 392 117 0 203-53 257-158v-497c-55-102-140-153-255-153" id="aV"/><g id="j"><use transform="matrix(0.008173828125000001,0,0,0.008173828125000001,0,0)" xlink:href="#aU"/><use transform="matrix(0.008173828125000001,0,0,0.008173828125000001,10.421630859375002,0)" xlink:href="#aJ"/><use transform="matrix(0.008173828125000001,0,0,0.008173828125000001,19.527275390625,0)" xlink:href="#aQ"/><use transform="matrix(0.008173828125000001,0,0,0.008173828125000001,28.289619140625,0)" xlink:href="#aE"/><use transform="matrix(0.008173828125000001,0,0,0.008173828125000001,36.610576171874996,0)" xlink:href="#az"/><use transform="matrix(0.008173828125000001,0,0,0.008173828125000001,45.47917968749999,0)" xlink:href="#aN"/><use transform="matrix(0.008173828125000001,0,0,0.008173828125000001,54.71560546874999,0)" xlink:href="#aV"/></g><path d="M177 125H18l608-1581h158" id="aW"/><path d="M375 0H183v-1456h192V0" id="aX"/><g id="k"><use transform="matrix(0.008173828125000001,0,0,0.008173828125000001,0,0)" xlink:href="#aR"/><use transform="matrix(0.008173828125000001,0,0,0.008173828125000001,9.399902343750002,0)" xlink:href="#aW"/><use transform="matrix(0.008173828125000001,0,0,0.008173828125000001,16.298613281250002,0)" xlink:href="#aX"/><use transform="matrix(0.008173828125000001,0,0,0.008173828125000001,20.851435546875003,0)" xlink:href="#aN"/><use transform="matrix(0.008173828125000001,0,0,0.008173828125000001,30.087861328125,0)" xlink:href="#aP"/><use transform="matrix(0.008173828125000001,0,0,0.008173828125000001,38.719423828125,0)" xlink:href="#aA"/><use transform="matrix(0.008173828125000001,0,0,0.008173828125000001,44.18771484375,0)" xlink:href="#aJ"/><use transform="matrix(0.008173828125000001,0,0,0.008173828125000001,53.293359375,0)" xlink:href="#aN"/><use transform="matrix(0.008173828125000001,0,0,0.008173828125000001,62.52978515625,0)" xlink:href="#aQ"/><use transform="matrix(0.008173828125000001,0,0,0.008173828125000001,71.29212890625,0)" xlink:href="#az"/></g><path d="M730-137c145 0 253-29 323-105v-327H716v-156h528v534C1148-51 964 20 729 20c-394 0-598-279-607-678v-127c-5-410 194-690 585-691 310-1 499 171 537 447h-192c-36-193-151-289-344-289-285 0-393 220-393 528v119c-5 296 140 534 415 534" id="aY"/><path d="M632-1102c291 0 422 251 422 573 0 297-141 548-419 549-131 0-235-42-310-125v521H140v-1498h169l9 120c75-93 180-140 314-140zm-53 971c207 0 290-180 290-419 0-218-92-395-292-395-112 0-196 50-252 149v517c55 99 140 148 254 148" id="aZ"/><g id="l"><use transform="matrix(0.008173828125000001,0,0,0.008173828125000001,0,0)" xlink:href="#aY"/><use transform="matrix(0.008173828125000001,0,0,0.008173828125000001,11.402490234375001,0)" xlink:href="#aD"/><use transform="matrix(0.008173828125000001,0,0,0.008173828125000001,16.903476562500003,0)" xlink:href="#aC"/><use transform="matrix(0.008173828125000001,0,0,0.008173828125000001,26.450507812500007,0)" xlink:href="#aO"/><use transform="matrix(0.008173828125000001,0,0,0.008173828125000001,35.67875976562501,0)" xlink:href="#aZ"/></g><use transform="matrix(0.008173828125000001,0,0,0.008173828125000001,0,0)" xlink:href="#aR" id="m"/><path d="M1240-945c-141 0-250 95-250 227V0H804v-709c0-157-77-236-231-236-121 0-204 52-249 155V0H139v-1082h175l5 120c79-93 186-140 321-140 151 0 254 58 309 174 69-98 181-174 345-174 237 0 362 126 362 377V0h-185v-714c-2-159-67-231-231-231" id="ba"/><g id="n"><use transform="matrix(0.008173828125000001,0,0,0.008173828125000001,0,0)" xlink:href="#aO"/><use transform="matrix(0.008173828125000001,0,0,0.008173828125000001,9.228251953125001,0)" xlink:href="#aP"/><use transform="matrix(0.008173828125000001,0,0,0.008173828125000001,17.859814453125004,0)" xlink:href="#aI"/><use transform="matrix(0.008173828125000001,0,0,0.008173828125000001,22.478027343750004,0)" xlink:href="#aQ"/><use transform="matrix(0.008173828125000001,0,0,0.008173828125000001,31.240371093750007,0)" xlink:href="#az"/><use transform="matrix(0.008173828125000001,0,0,0.008173828125000001,40.10897460937501,0)" xlink:href="#aN"/><use transform="matrix(0.008173828125000001,0,0,0.008173828125000001,49.34540039062501,0)" xlink:href="#aA"/><use transform="matrix(0.008173828125000001,0,0,0.008173828125000001,54.81369140625001,0)" xlink:href="#aD"/><use transform="matrix(0.008173828125000001,0,0,0.008173828125000001,60.15120117187501,0)" xlink:href="#aJ"/><use transform="matrix(0.008173828125000001,0,0,0.008173828125000001,69.25684570312501,0)" xlink:href="#aG"/><use transform="matrix(0.008173828125000001,0,0,0.008173828125000001,73.31923828125001,0)" xlink:href="#aR"/><use transform="matrix(0.008173828125000001,0,0,0.008173828125000001,82.71914062500001,0)" xlink:href="#aI"/><use transform="matrix(0.008173828125000001,0,0,0.008173828125000001,87.33735351562501,0)" xlink:href="#ba"/><use transform="matrix(0.008173828125000001,0,0,0.008173828125000001,102.009375,0)" xlink:href="#aM"/><use transform="matrix(0.008173828125000001,0,0,0.008173828125000001,106.07176757812499,0)" xlink:href="#aL"/></g><g id="o"><use transform="matrix(0.008173828125000001,0,0,0.008173828125000001,0,0)" xlink:href="#aT"/><use transform="matrix(0.008173828125000001,0,0,0.008173828125000001,9.399902343750002,0)" xlink:href="#aW"/><use transform="matrix(0.008173828125000001,0,0,0.008173828125000001,16.298613281250002,0)" xlink:href="#aX"/><use transform="matrix(0.008173828125000001,0,0,0.008173828125000001,20.851435546875003,0)" xlink:href="#aN"/><use transform="matrix(0.008173828125000001,0,0,0.008173828125000001,30.087861328125,0)" xlink:href="#aP"/><use transform="matrix(0.008173828125000001,0,0,0.008173828125000001,38.719423828125,0)" xlink:href="#aA"/><use transform="matrix(0.008173828125000001,0,0,0.008173828125000001,44.18771484375,0)" xlink:href="#aJ"/><use transform="matrix(0.008173828125000001,0,0,0.008173828125000001,53.293359375,0)" xlink:href="#aN"/><use transform="matrix(0.008173828125000001,0,0,0.008173828125000001,62.52978515625,0)" xlink:href="#aQ"/><use transform="matrix(0.008173828125000001,0,0,0.008173828125000001,71.29212890625,0)" xlink:href="#az"/></g><use transform="matrix(0.008173828125000001,0,0,0.008173828125000001,0,0)" xlink:href="#aT" id="p"/><g id="q"><use transform="matrix(0.008173828125000001,0,0,0.008173828125000001,0,0)" xlink:href="#aJ"/><use transform="matrix(0.008173828125000001,0,0,0.008173828125000001,9.10564453125,0)" xlink:href="#aP"/><use transform="matrix(0.008173828125000001,0,0,0.008173828125000001,17.73720703125,0)" xlink:href="#aM"/><use transform="matrix(0.008173828125000001,0,0,0.008173828125000001,21.799599609375,0)" xlink:href="#aJ"/><use transform="matrix(0.008173828125000001,0,0,0.008173828125000001,30.905244140625,0)" xlink:href="#aI"/><use transform="matrix(0.008173828125000001,0,0,0.008173828125000001,35.523457031250004,0)" xlink:href="#aN"/><use transform="matrix(0.008173828125000001,0,0,0.008173828125000001,44.7598828125,0)" xlink:href="#aC"/><use transform="matrix(0.008173828125000001,0,0,0.008173828125000001,54.306914062500006,0)" xlink:href="#aD"/><use transform="matrix(0.008173828125000001,0,0,0.008173828125000001,60.38006835937501,0)" xlink:href="#aA"/><use transform="matrix(0.008173828125000001,0,0,0.008173828125000001,65.84835937500002,0)" xlink:href="#aS"/><use transform="matrix(0.008173828125000001,0,0,0.008173828125000001,75.06843750000002,0)" xlink:href="#az"/><use transform="matrix(0.008173828125000001,0,0,0.008173828125000001,83.93704101562501,0)" xlink:href="#aJ"/><use transform="matrix(0.008173828125000001,0,0,0.008173828125000001,93.04268554687502,0)" xlink:href="#aP"/><use transform="matrix(0.008173828125000001,0,0,0.008173828125000001,101.67424804687502,0)" xlink:href="#aA"/><use transform="matrix(0.008173828125000001,0,0,0.008173828125000001,107.14253906250003,0)" xlink:href="#aR"/><use transform="matrix(0.008173828125000001,0,0,0.008173828125000001,116.54244140625002,0)" xlink:href="#aI"/><use transform="matrix(0.008173828125000001,0,0,0.008173828125000001,121.16065429687502,0)" xlink:href="#ba"/><use transform="matrix(0.008173828125000001,0,0,0.008173828125000001,135.83267578125003,0)" xlink:href="#aM"/><use transform="matrix(0.008173828125000001,0,0,0.008173828125000001,139.89506835937505,0)" xlink:href="#aL"/></g><g id="r"><use transform="matrix(0.008173828125000001,0,0,0.008173828125000001,0,0)" xlink:href="#aY"/><use transform="matrix(0.008173828125000001,0,0,0.008173828125000001,11.402490234375001,0)" xlink:href="#aG"/><use transform="matrix(0.008173828125000001,0,0,0.008173828125000001,15.4648828125,0)" xlink:href="#aC"/><use transform="matrix(0.008173828125000001,0,0,0.008173828125000001,25.011914062500004,0)" xlink:href="#aH"/><use transform="matrix(0.008173828125000001,0,0,0.008173828125000001,34.403642578125,0)" xlink:href="#aJ"/><use transform="matrix(0.008173828125000001,0,0,0.008173828125000001,43.509287109375,0)" xlink:href="#aG"/></g><path d="M992-673H361v516h733V0H169v-1456h915v158H361v468h631v157" id="bb"/><path d="M503-687l240-395h216L605-547 970 0H756L506-405 256 0H41l365-547-354-535h214" id="bc"/><g id="s"><use transform="matrix(0.008173828125000001,0,0,0.008173828125000001,0,0)" xlink:href="#bb"/><use transform="matrix(0.008173828125000001,0,0,0.008173828125000001,9.5143359375,0)" xlink:href="#bc"/><use transform="matrix(0.008173828125000001,0,0,0.008173828125000001,17.810771484375003,0)" xlink:href="#aA"/><use transform="matrix(0.008173828125000001,0,0,0.008173828125000001,23.279062500000002,0)" xlink:href="#az"/><use transform="matrix(0.008173828125000001,0,0,0.008173828125000001,32.147666015625006,0)" xlink:href="#aD"/><use transform="matrix(0.008173828125000001,0,0,0.008173828125000001,37.81212890625001,0)" xlink:href="#aN"/><use transform="matrix(0.008173828125000001,0,0,0.008173828125000001,47.04855468750001,0)" xlink:href="#aJ"/><use transform="matrix(0.008173828125000001,0,0,0.008173828125000001,56.15419921875001,0)" xlink:href="#aG"/></g><path d="M973-380H363L226 0H28l556-1456h168L1309 0h-197zM421-538h495l-248-681" id="bd"/><g id="t"><use transform="matrix(0.008173828125000001,0,0,0.008173828125000001,0,0)" xlink:href="#bd"/><use transform="matrix(0.008173828125000001,0,0,0.008173828125000001,10.920234375000001,0)" xlink:href="#aZ"/><use transform="matrix(0.008173828125000001,0,0,0.008173828125000001,20.311962890625,0)" xlink:href="#aZ"/><use transform="matrix(0.008173828125000001,0,0,0.008173828125000001,29.703691406250005,0)" xlink:href="#aG"/><use transform="matrix(0.008173828125000001,0,0,0.008173828125000001,33.76608398437501,0)" xlink:href="#aM"/><use transform="matrix(0.008173828125000001,0,0,0.008173828125000001,37.82847656250001,0)" xlink:href="#aQ"/><use transform="matrix(0.008173828125000001,0,0,0.008173828125000001,46.59082031250001,0)" xlink:href="#aJ"/><use transform="matrix(0.008173828125000001,0,0,0.008173828125000001,55.69646484375001,0)" xlink:href="#aA"/><use transform="matrix(0.008173828125000001,0,0,0.008173828125000001,61.164755859375006,0)" xlink:href="#aM"/><use transform="matrix(0.008173828125000001,0,0,0.008173828125000001,65.2271484375,0)" xlink:href="#aC"/><use transform="matrix(0.008173828125000001,0,0,0.008173828125000001,74.77417968750001,0)" xlink:href="#aN"/></g><path d="M362-157h690V0H169v-1456h193v1299" id="be"/><g id="u"><use transform="matrix(0.008173828125000001,0,0,0.008173828125000001,0,0)" xlink:href="#be"/><use transform="matrix(0.008173828125000001,0,0,0.008173828125000001,9.007558593750002,0)" xlink:href="#aC"/><use transform="matrix(0.008173828125000001,0,0,0.008173828125000001,18.55458984375,0)" xlink:href="#aJ"/><use transform="matrix(0.008173828125000001,0,0,0.008173828125000001,27.660234375,0)" xlink:href="#aV"/></g><g id="v"><use transform="matrix(0.008173828125000001,0,0,0.008173828125000001,0,0)" xlink:href="#aU"/><use transform="matrix(0.008173828125000001,0,0,0.008173828125000001,10.421630859375002,0)" xlink:href="#aJ"/><use transform="matrix(0.008173828125000001,0,0,0.008173828125000001,19.527275390625,0)" xlink:href="#aG"/><use transform="matrix(0.008173828125000001,0,0,0.008173828125000001,23.58966796875,0)" xlink:href="#aJ"/><use transform="matrix(0.008173828125000001,0,0,0.008173828125000001,32.6953125,0)" xlink:href="#aN"/><use transform="matrix(0.008173828125000001,0,0,0.008173828125000001,41.93173828125,0)" xlink:href="#aQ"/><use transform="matrix(0.008173828125000001,0,0,0.008173828125000001,50.69408203125,0)" xlink:href="#az"/><use transform="matrix(0.008173828125000001,0,0,0.008173828125000001,59.562685546875,0)" xlink:href="#aD"/></g><g id="w"><use transform="matrix(0.008173828125000001,0,0,0.008173828125000001,0,0)" xlink:href="#ax"/><use transform="matrix(0.008173828125000001,0,0,0.008173828125000001,10.895712890625001,0)" xlink:href="#aG"/><use transform="matrix(0.008173828125000001,0,0,0.008173828125000001,14.958105468750002,0)" xlink:href="#aC"/><use transform="matrix(0.008173828125000001,0,0,0.008173828125000001,24.505136718750002,0)" xlink:href="#aO"/><use transform="matrix(0.008173828125000001,0,0,0.008173828125000001,33.733388671875005,0)" xlink:href="#aV"/></g><g id="x"><use transform="matrix(0.008173828125000001,0,0,0.008173828125000001,0,0)" xlink:href="#av"/><use transform="matrix(0.008173828125000001,0,0,0.008173828125000001,10.650498046875,0)" xlink:href="#aM"/><use transform="matrix(0.008173828125000001,0,0,0.008173828125000001,14.712890625,0)" xlink:href="#aD"/><use transform="matrix(0.008173828125000001,0,0,0.008173828125000001,20.786044921875,0)" xlink:href="#aA"/><use transform="matrix(0.008173828125000001,0,0,0.008173828125000001,26.254335937500002,0)" xlink:href="#aO"/><use transform="matrix(0.008173828125000001,0,0,0.008173828125000001,35.482587890625005,0)" xlink:href="#aJ"/><use transform="matrix(0.008173828125000001,0,0,0.008173828125000001,44.588232421875006,0)" xlink:href="#aG"/></g><g id="y"><use transform="matrix(0.008173828125000001,0,0,0.008173828125000001,0,0)" xlink:href="#ay"/><use transform="matrix(0.008173828125000001,0,0,0.008173828125000001,11.9337890625,0)" xlink:href="#az"/><use transform="matrix(0.008173828125000001,0,0,0.008173828125000001,20.802392578125,0)" xlink:href="#aA"/><use transform="matrix(0.008173828125000001,0,0,0.008173828125000001,26.27068359375,0)" xlink:href="#aB"/><use transform="matrix(0.008173828125000001,0,0,0.008173828125000001,38.850205078125,0)" xlink:href="#aC"/><use transform="matrix(0.008173828125000001,0,0,0.008173828125000001,48.397236328125004,0)" xlink:href="#aD"/><use transform="matrix(0.008173828125000001,0,0,0.008173828125000001,54.06169921875001,0)" xlink:href="#aE"/></g><g id="z"><use transform="matrix(0.010850694444444444,0,0,0.010850694444444444,0,0)" xlink:href="#ax"/><use transform="matrix(0.010850694444444444,0,0,0.010850694444444444,14.463975694444445,0)" xlink:href="#aC"/><use transform="matrix(0.010850694444444444,0,0,0.010850694444444444,27.13758680555556,0)" xlink:href="#ba"/><use transform="matrix(0.010850694444444444,0,0,0.010850694444444444,46.61458333333333,0)" xlink:href="#aZ"/><use transform="matrix(0.010850694444444444,0,0,0.010850694444444444,59.08203125,0)" xlink:href="#aO"/><use transform="matrix(0.010850694444444444,0,0,0.010850694444444444,71.33246527777777,0)" xlink:href="#aA"/><use transform="matrix(0.010850694444444444,0,0,0.010850694444444444,78.5915798611111,0)" xlink:href="#az"/></g><g id="A"><use transform="matrix(0.010850694444444444,0,0,0.010850694444444444,0,0)" xlink:href="#bb"/><use transform="matrix(0.010850694444444444,0,0,0.010850694444444444,12.630208333333332,0)" xlink:href="#aN"/><use transform="matrix(0.010850694444444444,0,0,0.010850694444444444,24.891493055555554,0)" xlink:href="#aL"/><use transform="matrix(0.010850694444444444,0,0,0.010850694444444444,37.35894097222222,0)" xlink:href="#aM"/><use transform="matrix(0.010850694444444444,0,0,0.010850694444444444,42.75173611111111,0)" xlink:href="#aN"/><use transform="matrix(0.010850694444444444,0,0,0.010850694444444444,55.01302083333333,0)" xlink:href="#az"/></g><g id="B"><use transform="matrix(0.008173828125000001,0,0,0.008173828125000001,0,0)" xlink:href="#ax"/><use transform="matrix(0.008173828125000001,0,0,0.008173828125000001,10.895712890625001,0)" xlink:href="#aG"/><use transform="matrix(0.008173828125000001,0,0,0.008173828125000001,14.958105468750002,0)" xlink:href="#aC"/><use transform="matrix(0.008173828125000001,0,0,0.008173828125000001,24.505136718750002,0)" xlink:href="#aO"/><use transform="matrix(0.008173828125000001,0,0,0.008173828125000001,33.733388671875005,0)" xlink:href="#aV"/></g><g id="C"><use transform="matrix(0.008173828125000001,0,0,0.008173828125000001,0,0)" xlink:href="#be"/><use transform="matrix(0.008173828125000001,0,0,0.008173828125000001,9.007558593750002,0)" xlink:href="#aC"/><use transform="matrix(0.008173828125000001,0,0,0.008173828125000001,18.55458984375,0)" xlink:href="#aJ"/><use transform="matrix(0.008173828125000001,0,0,0.008173828125000001,27.660234375,0)" xlink:href="#aV"/></g><g id="D"><use transform="matrix(0.008173828125000001,0,0,0.008173828125000001,0,0)" xlink:href="#aU"/><use transform="matrix(0.008173828125000001,0,0,0.008173828125000001,10.421630859375002,0)" xlink:href="#aJ"/><use transform="matrix(0.008173828125000001,0,0,0.008173828125000001,19.527275390625,0)" xlink:href="#aG"/><use transform="matrix(0.008173828125000001,0,0,0.008173828125000001,23.58966796875,0)" xlink:href="#aJ"/><use transform="matrix(0.008173828125000001,0,0,0.008173828125000001,32.6953125,0)" xlink:href="#aN"/><use transform="matrix(0.008173828125000001,0,0,0.008173828125000001,41.93173828125,0)" xlink:href="#aQ"/><use transform="matrix(0.008173828125000001,0,0,0.008173828125000001,50.69408203125,0)" xlink:href="#aM"/><use transform="matrix(0.008173828125000001,0,0,0.008173828125000001,54.756474609375,0)" xlink:href="#aN"/><use transform="matrix(0.008173828125000001,0,0,0.008173828125000001,63.992900390624996,0)" xlink:href="#aL"/></g><path d="M494-271l252-811h198L509 167C425 381 299 474 84 421V271c167 16 242-37 283-173l41-110L22-1082h202" id="bf"/><g id="F"><use transform="matrix(0.008173828125000001,0,0,0.008173828125000001,0,0)" xlink:href="#bd"/><use transform="matrix(0.008173828125000001,0,0,0.008173828125000001,10.920234375000001,0)" xlink:href="#aN"/><use transform="matrix(0.008173828125000001,0,0,0.008173828125000001,20.156660156250002,0)" xlink:href="#bf"/><use transform="matrix(0.008173828125000001,0,0,0.008173828125000001,27.97083984375,0)" xlink:href="#aQ"/><use transform="matrix(0.008173828125000001,0,0,0.008173828125000001,36.73318359375,0)" xlink:href="#aJ"/><use transform="matrix(0.008173828125000001,0,0,0.008173828125000001,45.838828125,0)" xlink:href="#aP"/><use transform="matrix(0.008173828125000001,0,0,0.008173828125000001,54.470390625,0)" xlink:href="#aA"/></g><g id="G"><use transform="matrix(0.008173828125000001,0,0,0.008173828125000001,0,0)" xlink:href="#aX"/><use transform="matrix(0.008173828125000001,0,0,0.008173828125000001,4.552822265625,0)" xlink:href="#aw"/></g><filter id="E" filterUnits="objectBoundingBox" x="0" y="-.01" width="1.01" height="1.05"><feOffset result="offOut" in="SourceAlpha" dy="1"/><feGaussianBlur result="blurOut" in="offOut" stdDeviation=".75"/><feColorMatrix result="colorOut" in="blurOut" values="0 0 0 0 0 0 0 0 0 0 0 0 0 0 0 0 0 0 0.4 0"/><feBlend in="SourceGraphic" in2="colorOut"/></filter><path d="M972-643H361V0H169v-1456h902v158H361v498h611v157" id="bg"/><g id="H"><use transform="matrix(0.008173828125000001,0,0,0.008173828125000001,0,0)" xlink:href="#bg"/><use transform="matrix(0.008173828125000001,0,0,0.008173828125000001,9.252773437500002,0)" xlink:href="#aB"/><use transform="matrix(0.008173828125000001,0,0,0.008173828125000001,21.832294921875004,0)" xlink:href="#aV"/></g><g id="I"><use transform="matrix(0.008173828125000001,0,0,0.008173828125000001,0,0)" xlink:href="#aK"/><use transform="matrix(0.008173828125000001,0,0,0.008173828125000001,10.307197265625001,0)" xlink:href="#aO"/><use transform="matrix(0.008173828125000001,0,0,0.008173828125000001,19.535449218750003,0)" xlink:href="#aG"/><use transform="matrix(0.008173828125000001,0,0,0.008173828125000001,23.597841796875002,0)" xlink:href="#az"/></g><path d="M1175-1298H707V0H516v-1298H49v-158h1126v158" id="bh"/><g id="J"><use transform="matrix(0.008173828125000001,0,0,0.008173828125000001,0,0)" xlink:href="#bh"/><use transform="matrix(0.008173828125000001,0,0,0.008173828125000001,9.064775390625002,0)" xlink:href="#aJ"/><use transform="matrix(0.008173828125000001,0,0,0.008173828125000001,18.170419921875002,0)" xlink:href="#aD"/><use transform="matrix(0.008173828125000001,0,0,0.008173828125000001,23.679580078125003,0)" xlink:href="#aL"/><use transform="matrix(0.008173828125000001,0,0,0.008173828125000001,33.071308593750004,0)" xlink:href="#az"/><use transform="matrix(0.008173828125000001,0,0,0.008173828125000001,41.939912109374994,0)" xlink:href="#aA"/></g><g id="K"><use transform="matrix(0.008173828125000001,0,0,0.008173828125000001,0,0)" xlink:href="#aw"/><use transform="matrix(0.008173828125000001,0,0,0.008173828125000001,10.5605859375,0)" xlink:href="#aD"/><use transform="matrix(0.008173828125000001,0,0,0.008173828125000001,16.061572265625003,0)" xlink:href="#aC"/><use transform="matrix(0.008173828125000001,0,0,0.008173828125000001,25.436953125000002,0)" xlink:href="#bc"/><use transform="matrix(0.008173828125000001,0,0,0.008173828125000001,33.733388671875005,0)" xlink:href="#bf"/></g><path d="M319-664C304-226 428 158 661 357l-38 113c-89-49-172-133-254-248C142-97 71-578 194-1025c67-244 240-513 429-618l38 122c-201 153-330 502-342 857" id="bi"/><g id="L"><use transform="matrix(0.008173828125000001,0,0,0.008173828125000001,0,0)" xlink:href="#bi"/><use transform="matrix(0.008173828125000001,0,0,0.008173828125000001,5.721679687500001,0)" xlink:href="#bb"/><use transform="matrix(0.008173828125000001,0,0,0.008173828125000001,15.236015625,0)" xlink:href="#bc"/><use transform="matrix(0.008173828125000001,0,0,0.008173828125000001,23.532451171875003,0)" xlink:href="#aA"/></g><g id="M"><use transform="matrix(0.008173828125000001,0,0,0.008173828125000001,0,0)" xlink:href="#aA"/><use transform="matrix(0.008173828125000001,0,0,0.008173828125000001,5.304814453125001,0)" xlink:href="#aC"/></g><g id="N"><use transform="matrix(0.008173828125000001,0,0,0.008173828125000001,0,0)" xlink:href="#aX"/><use transform="matrix(0.008173828125000001,0,0,0.008173828125000001,4.552822265625,0)" xlink:href="#aN"/><use transform="matrix(0.008173828125000001,0,0,0.008173828125000001,13.789248046875,0)" xlink:href="#aA"/></g><path d="M704-1390c-164-38-297 28-288 194v114h231v143H416V0H231v-939H60v-143h171v-111c-12-274 208-416 483-347" id="bj"/><path d="M38 357C331 141 457-487 337-984c-53-219-157-429-299-546l39-113c190 106 362 378 431 621 75 268 76 597 0 868C440 88 266 365 77 470" id="bk"/><g id="O"><use transform="matrix(0.008173828125000001,0,0,0.008173828125000001,0,0)" xlink:href="#aA"/><use transform="matrix(0.008173828125000001,0,0,0.008173828125000001,5.468291015625001,0)" xlink:href="#aD"/><use transform="matrix(0.008173828125000001,0,0,0.008173828125000001,10.805800781250001,0)" xlink:href="#aJ"/><use transform="matrix(0.008173828125000001,0,0,0.008173828125000001,19.9114453125,0)" xlink:href="#bj"/><use transform="matrix(0.008173828125000001,0,0,0.008173828125000001,25.723037109375,0)" xlink:href="#bj"/><use transform="matrix(0.008173828125000001,0,0,0.008173828125000001,31.53462890625,0)" xlink:href="#aM"/><use transform="matrix(0.008173828125000001,0,0,0.008173828125000001,35.597021484375,0)" xlink:href="#aQ"/><use transform="matrix(0.008173828125000001,0,0,0.008173828125000001,44.359365234375,0)" xlink:href="#bk"/></g><path d="M1222-777c17 480-206 763-650 777H169v-1456h411c408 9 627 269 642 679zm-190 4c3-312-149-522-447-525H361v1141h202c308 0 473-209 469-531v-85" id="bl"/><g id="Q"><use transform="matrix(0.008173828125000001,0,0,0.008173828125000001,0,0)" xlink:href="#bl"/><use transform="matrix(0.008173828125000001,0,0,0.008173828125000001,10.977451171875002,0)" xlink:href="#az"/><use transform="matrix(0.008173828125000001,0,0,0.008173828125000001,19.846054687500004,0)" xlink:href="#bj"/><use transform="matrix(0.008173828125000001,0,0,0.008173828125000001,25.657646484375,0)" xlink:href="#aJ"/><use transform="matrix(0.008173828125000001,0,0,0.008173828125000001,34.76329101562501,0)" xlink:href="#aO"/><use transform="matrix(0.008173828125000001,0,0,0.008173828125000001,43.991542968750004,0)" xlink:href="#aG"/><use transform="matrix(0.008173828125000001,0,0,0.008173828125000001,48.053935546875,0)" xlink:href="#aA"/></g><path d="M665-137c214 0 337-121 336-332v-987h193v990c-3 300-218 486-529 486-309 0-526-181-525-484v-992h190v986c-1 210 123 333 335 333" id="bm"/><g id="R"><use transform="matrix(0.008173828125000001,0,0,0.008173828125000001,0,0)" xlink:href="#bm"/><use transform="matrix(0.008173828125000001,0,0,0.008173828125000001,10.85484375,0)" xlink:href="#aK"/><use transform="matrix(0.008173828125000001,0,0,0.008173828125000001,21.162041015625,0)" xlink:href="#be"/></g><path d="M417-1456L893-268l476-1188h249V0h-192c-4-403 4-794 18-1179L966 0H819L342-1176c15 384 23 773 19 1176H169v-1456h248" id="bn"/><g id="S"><use transform="matrix(0.008173828125000001,0,0,0.008173828125000001,0,0)" xlink:href="#bn"/><use transform="matrix(0.008173828125000001,0,0,0.008173828125000001,14.614804687500001,0)" xlink:href="#aJ"/><use transform="matrix(0.008173828125000001,0,0,0.008173828125000001,23.72044921875,0)" xlink:href="#aZ"/></g><g id="T"><use transform="matrix(0.008173828125000001,0,0,0.008173828125000001,0,0)" xlink:href="#bi"/><use transform="matrix(0.008173828125000001,0,0,0.008173828125000001,5.721679687500001,0)" xlink:href="#bd"/><use transform="matrix(0.008173828125000001,0,0,0.008173828125000001,16.641914062500003,0)" xlink:href="#aG"/><use transform="matrix(0.008173828125000001,0,0,0.008173828125000001,20.704306640625003,0)" xlink:href="#aG"/></g><g id="U"><use transform="matrix(0.008173828125000001,0,0,0.008173828125000001,0,0)" xlink:href="#aA"/><use transform="matrix(0.008173828125000001,0,0,0.008173828125000001,5.468291015625001,0)" xlink:href="#aD"/><use transform="matrix(0.008173828125000001,0,0,0.008173828125000001,10.805800781250001,0)" xlink:href="#aJ"/><use transform="matrix(0.008173828125000001,0,0,0.008173828125000001,19.9114453125,0)" xlink:href="#bj"/><use transform="matrix(0.008173828125000001,0,0,0.008173828125000001,25.723037109375,0)" xlink:href="#bj"/><use transform="matrix(0.008173828125000001,0,0,0.008173828125000001,31.53462890625,0)" xlink:href="#aM"/><use transform="matrix(0.008173828125000001,0,0,0.008173828125000001,35.597021484375,0)" xlink:href="#aQ"/></g><g id="V"><use transform="matrix(0.008173828125000001,0,0,0.008173828125000001,0,0)" xlink:href="#aU"/><use transform="matrix(0.008173828125000001,0,0,0.008173828125000001,10.421630859375002,0)" xlink:href="#aJ"/><use transform="matrix(0.008173828125000001,0,0,0.008173828125000001,19.527275390625,0)" xlink:href="#aQ"/><use transform="matrix(0.008173828125000001,0,0,0.008173828125000001,28.289619140625,0)" xlink:href="#aE"/><use transform="matrix(0.008173828125000001,0,0,0.008173828125000001,36.610576171874996,0)" xlink:href="#az"/><use transform="matrix(0.008173828125000001,0,0,0.008173828125000001,45.47917968749999,0)" xlink:href="#aN"/><use transform="matrix(0.008173828125000001,0,0,0.008173828125000001,54.71560546874999,0)" xlink:href="#aV"/></g><path d="M631-137c179 0 314-70 314-231 0-71-25-127-75-166s-141-77-272-115c-165-47-285-106-360-175s-112-154-112-255c0-245 231-397 495-397 206 0 369 89 449 218 43 68 65 142 65 223H942c0-184-129-283-321-283-172 0-299 76-301 236 0 59 26 109 76 150s135 78 256 113c205 59 345 116 436 256 35 53 50 119 50 193-2 256-231 398-507 390C333 12 90-129 80-422h193c0 187 160 285 358 285" id="bo"/><path d="M497-251l268-831h189L566 0H425L33-1082h189" id="bp"/><g id="W"><use transform="matrix(0.008173828125000001,0,0,0.008173828125000001,0,0)" xlink:href="#bo"/><use transform="matrix(0.008173828125000001,0,0,0.008173828125000001,9.931201171875001,0)" xlink:href="#az"/><use transform="matrix(0.008173828125000001,0,0,0.008173828125000001,18.7998046875,0)" xlink:href="#aD"/><use transform="matrix(0.008173828125000001,0,0,0.008173828125000001,24.611396484375,0)" xlink:href="#bp"/><use transform="matrix(0.008173828125000001,0,0,0.008173828125000001,32.719833984375,0)" xlink:href="#aM"/><use transform="matrix(0.008173828125000001,0,0,0.008173828125000001,36.7822265625,0)" xlink:href="#aQ"/><use transform="matrix(0.008173828125000001,0,0,0.008173828125000001,45.5445703125,0)" xlink:href="#az"/></g><g id="X"><use transform="matrix(0.008173828125000001,0,0,0.008173828125000001,0,0)" xlink:href="#aR"/><use transform="matrix(0.008173828125000001,0,0,0.008173828125000001,9.399902343750002,0)" xlink:href="#bk"/></g><filter id="P" filterUnits="objectBoundingBox" x="0" y="-.01" width="1.01" height="1.04"><feOffset result="offOut" in="SourceAlpha" dy="1"/><feGaussianBlur result="blurOut" in="offOut" stdDeviation=".75"/><feColorMatrix result="colorOut" in="blurOut" values="0 0 0 0 0 0 0 0 0 0 0 0 0 0 0 0 0 0 0.4 0"/><feBlend in="SourceGraphic" in2="colorOut"/></filter><g id="Y"><use transform="matrix(0.008173828125000001,0,0,0.008173828125000001,0,0)" xlink:href="#aw"/><use transform="matrix(0.008173828125000001,0,0,0.008173828125000001,10.5605859375,0)" xlink:href="#aD"/><use transform="matrix(0.008173828125000001,0,0,0.008173828125000001,16.061572265625003,0)" xlink:href="#aC"/><use transform="matrix(0.008173828125000001,0,0,0.008173828125000001,25.436953125000002,0)" xlink:href="#bc"/><use transform="matrix(0.008173828125000001,0,0,0.008173828125000001,33.733388671875005,0)" xlink:href="#bf"/></g><use transform="matrix(0.008173828125000001,0,0,0.008173828125000001,0,0)" xlink:href="#aR" id="Z"/><path d="M1288 0h-193v-673H361V0H169v-1456h192v626h734v-626h193V0" id="bq"/><g id="aa"><use transform="matrix(0.008173828125000001,0,0,0.008173828125000001,0,0)" xlink:href="#bq"/><use transform="matrix(0.008173828125000001,0,0,0.008173828125000001,11.9337890625,0)" xlink:href="#az"/><use transform="matrix(0.008173828125000001,0,0,0.008173828125000001,20.802392578125,0)" xlink:href="#aJ"/><use transform="matrix(0.008173828125000001,0,0,0.008173828125000001,29.908037109375005,0)" xlink:href="#aG"/><use transform="matrix(0.008173828125000001,0,0,0.008173828125000001,33.9704296875,0)" xlink:href="#aA"/><use transform="matrix(0.008173828125000001,0,0,0.008173828125000001,39.438720703125,0)" xlink:href="#aS"/></g><g id="ab"><use transform="matrix(0.008173828125000001,0,0,0.008173828125000001,0,0)" xlink:href="#ax"/><use transform="matrix(0.008173828125000001,0,0,0.008173828125000001,10.895712890625001,0)" xlink:href="#aS"/><use transform="matrix(0.008173828125000001,0,0,0.008173828125000001,20.115791015625,0)" xlink:href="#az"/><use transform="matrix(0.008173828125000001,0,0,0.008173828125000001,28.98439453125,0)" xlink:href="#aQ"/><use transform="matrix(0.008173828125000001,0,0,0.008173828125000001,37.74673828125,0)" xlink:href="#aE"/></g><g id="ac"><use transform="matrix(0.010850694444444444,0,0,0.010850694444444444,0,0)" xlink:href="#bg"/><use transform="matrix(0.010850694444444444,0,0,0.010850694444444444,12.28298611111111,0)" xlink:href="#aM"/><use transform="matrix(0.010850694444444444,0,0,0.010850694444444444,17.67578125,0)" xlink:href="#aD"/><use transform="matrix(0.010850694444444444,0,0,0.010850694444444444,24.989149305555554,0)" xlink:href="#az"/><use transform="matrix(0.010850694444444444,0,0,0.010850694444444444,36.76215277777778,0)" xlink:href="#aB"/><use transform="matrix(0.010850694444444444,0,0,0.010850694444444444,53.46137152777778,0)" xlink:href="#aJ"/><use transform="matrix(0.010850694444444444,0,0,0.010850694444444444,65.54904513888889,0)" xlink:href="#aG"/><use transform="matrix(0.010850694444444444,0,0,0.010850694444444444,70.94184027777777,0)" xlink:href="#aG"/></g><g id="ad"><use transform="matrix(0.010850694444444444,0,0,0.010850694444444444,0,0)" xlink:href="#aK"/><use transform="matrix(0.010850694444444444,0,0,0.010850694444444444,13.682725694444445,0)" xlink:href="#aO"/><use transform="matrix(0.010850694444444444,0,0,0.010850694444444444,25.93315972222222,0)" xlink:href="#aG"/><use transform="matrix(0.010850694444444444,0,0,0.010850694444444444,31.32595486111111,0)" xlink:href="#az"/><use transform="matrix(0.010850694444444444,0,0,0.010850694444444444,43.09895833333333,0)" xlink:href="#aP"/></g><g id="ae"><use transform="matrix(0.010850694444444444,0,0,0.010850694444444444,0,0)" xlink:href="#ax"/><use transform="matrix(0.010850694444444444,0,0,0.010850694444444444,14.463975694444445,0)" xlink:href="#aG"/><use transform="matrix(0.010850694444444444,0,0,0.010850694444444444,19.856770833333332,0)" xlink:href="#aC"/><use transform="matrix(0.010850694444444444,0,0,0.010850694444444444,32.53038194444444,0)" xlink:href="#aO"/><use transform="matrix(0.010850694444444444,0,0,0.010850694444444444,44.78081597222222,0)" xlink:href="#aV"/></g><g id="af"><use transform="matrix(0.010850694444444444,0,0,0.010850694444444444,0,0)" xlink:href="#ay"/><use transform="matrix(0.010850694444444444,0,0,0.010850694444444444,16.037326388888886,0)" xlink:href="#bd"/><use transform="matrix(0.010850694444444444,0,0,0.010850694444444444,30.533854166666664,0)" xlink:href="#bh"/></g><g id="ag"><use transform="matrix(0.010850694444444444,0,0,0.010850694444444444,0,0)" xlink:href="#ax"/><use transform="matrix(0.010850694444444444,0,0,0.010850694444444444,14.463975694444445,0)" xlink:href="#aG"/><use transform="matrix(0.010850694444444444,0,0,0.010850694444444444,19.856770833333332,0)" xlink:href="#aC"/><use transform="matrix(0.010850694444444444,0,0,0.010850694444444444,32.53038194444444,0)" xlink:href="#aO"/><use transform="matrix(0.010850694444444444,0,0,0.010850694444444444,44.78081597222222,0)" xlink:href="#aV"/></g><g id="ah"><use transform="matrix(0.010850694444444444,0,0,0.010850694444444444,0,0)" xlink:href="#ay"/><use transform="matrix(0.010850694444444444,0,0,0.010850694444444444,16.037326388888886,0)" xlink:href="#bd"/><use transform="matrix(0.010850694444444444,0,0,0.010850694444444444,30.533854166666664,0)" xlink:href="#bh"/></g><path d="M370-1490V0H180v-1490h190" id="br"/><path d="M338-670V0H158v-1118h173l1 207c72-158 192-221 342-221 226 0 378 139 378 422V0H872v-695c0-172-96-275-252-275-161 0-282 109-282 300" id="bs"/><path d="M598-1118v154H368v674c0 100 37 144 132 144 23 0 62-6 92-12L629-6c-37 13-88 20-134 20-193 0-307-107-307-290v-688H20v-154h168v-266h180v266h230" id="bt"/><path d="M628 24c-324 0-524-230-524-574 0-343 198-582 503-582 237 0 487 146 487 559v75H286c9 234 145 362 343 362 132 0 231-58 273-172l174 48C1024-91 857 24 628 24zM287-650h624c-17-190-120-322-304-322-192 0-309 151-320 322" id="bu"/><path d="M158 0v-1118h174v172h12c41-113 157-188 290-188 26 0 70 2 91 3v181c-11-2-60-10-108-10-161 0-279 109-279 260V0H158" id="bv"/><g id="ai"><use transform="matrix(0.010850694444444444,0,0,0.010850694444444444,0,0)" xlink:href="#br"/><use transform="matrix(0.010850694444444444,0,0,0.010850694444444444,5.967881944444445,0)" xlink:href="#bs"/><use transform="matrix(0.010850694444444444,0,0,0.010850694444444444,19.09722222222222,0)" xlink:href="#bt"/><use transform="matrix(0.010850694444444444,0,0,0.010850694444444444,26.15017361111111,0)" xlink:href="#bu"/><use transform="matrix(0.010850694444444444,0,0,0.010850694444444444,39.10590277777778,0)" xlink:href="#bv"/><use transform="matrix(0.010850694444444444,0,0,0.010850694444444444,47.819010416666664,0)" xlink:href="#bs"/><use transform="matrix(0.010850694444444444,0,0,0.010850694444444444,60.94835069444444,0)" xlink:href="#bu"/><use transform="matrix(0.010850694444444444,0,0,0.010850694444444444,73.90407986111111,0)" xlink:href="#bt"/></g><g id="aj"><use transform="matrix(0.010850694444444444,0,0,0.010850694444444444,0,0)" xlink:href="#br"/><use transform="matrix(0.010850694444444444,0,0,0.010850694444444444,5.967881944444445,0)" xlink:href="#bs"/><use transform="matrix(0.010850694444444444,0,0,0.010850694444444444,19.09722222222222,0)" xlink:href="#bt"/><use transform="matrix(0.010850694444444444,0,0,0.010850694444444444,26.15017361111111,0)" xlink:href="#bu"/><use transform="matrix(0.010850694444444444,0,0,0.010850694444444444,39.10590277777778,0)" xlink:href="#bv"/><use transform="matrix(0.010850694444444444,0,0,0.010850694444444444,47.819010416666664,0)" xlink:href="#bs"/><use transform="matrix(0.010850694444444444,0,0,0.010850694444444444,60.94835069444444,0)" xlink:href="#bu"/><use transform="matrix(0.010850694444444444,0,0,0.010850694444444444,73.90407986111111,0)" xlink:href="#bt"/></g><g id="al"><use transform="matrix(0.010850694444444444,0,0,0.010850694444444444,0,0)" xlink:href="#bb"/><use transform="matrix(0.010850694444444444,0,0,0.010850694444444444,12.42404513888889,0)" xlink:href="#aL"/><use transform="matrix(0.010850694444444444,0,0,0.010850694444444444,24.891493055555554,0)" xlink:href="#aD"/><use transform="matrix(0.010850694444444444,0,0,0.010850694444444444,32.204861111111114,0)" xlink:href="#az"/><use transform="matrix(0.010850694444444444,0,0,0.010850694444444444,43.977864583333336,0)" xlink:href="#aP"/><use transform="matrix(0.010850694444444444,0,0,0.010850694444444444,55.43619791666667,0)" xlink:href="#aP"/></g><g id="am"><use transform="matrix(0.010850694444444444,0,0,0.010850694444444444,0,0)" xlink:href="#aA"/><use transform="matrix(0.010850694444444444,0,0,0.010850694444444444,7.259114583333333,0)" xlink:href="#aD"/><use transform="matrix(0.010850694444444444,0,0,0.010850694444444444,14.344618055555555,0)" xlink:href="#aJ"/><use transform="matrix(0.010850694444444444,0,0,0.010850694444444444,26.432291666666664,0)" xlink:href="#bj"/><use transform="matrix(0.010850694444444444,0,0,0.010850694444444444,34.147135416666664,0)" xlink:href="#bj"/><use transform="matrix(0.010850694444444444,0,0,0.010850694444444444,41.861979166666664,0)" xlink:href="#aM"/><use transform="matrix(0.010850694444444444,0,0,0.010850694444444444,47.25477430555556,0)" xlink:href="#aQ"/></g><filter id="ak" filterUnits="objectBoundingBox" x="-.01" y="-.01" width="1.01" height="1.05"><feOffset result="offOut" in="SourceAlpha" dy="1"/><feGaussianBlur result="blurOut" in="offOut" stdDeviation=".75"/><feColorMatrix result="colorOut" in="blurOut" values="0 0 0 0 0 0 0 0 0 0 0 0 0 0 0 0 0 0 0.4 0"/><feBlend in="SourceGraphic" in2="colorOut"/></filter><g id="ao"><use transform="matrix(0.013020833333333334,0,0,0.013020833333333334,0,0)" xlink:href="#bb"/><use transform="matrix(0.013020833333333334,0,0,0.013020833333333334,14.908854166666668,0)" xlink:href="#aV"/><use transform="matrix(0.013020833333333334,0,0,0.013020833333333334,29.94791666666666,0)" xlink:href="#aL"/><use transform="matrix(0.013020833333333334,0,0,0.013020833333333334,44.908854166666664,0)" xlink:href="#az"/></g><g id="ap"><use transform="matrix(0.013020833333333334,0,0,0.013020833333333334,0,0)" xlink:href="#be"/><use transform="matrix(0.013020833333333334,0,0,0.013020833333333334,14.348958333333334,0)" xlink:href="#aC"/><use transform="matrix(0.013020833333333334,0,0,0.013020833333333334,29.557291666666668,0)" xlink:href="#aQ"/><use transform="matrix(0.013020833333333334,0,0,0.013020833333333334,43.515625,0)" xlink:href="#aJ"/><use transform="matrix(0.013020833333333334,0,0,0.013020833333333334,58.020833333333336,0)" xlink:href="#aA"/><use transform="matrix(0.013020833333333334,0,0,0.013020833333333334,66.73177083333334,0)" xlink:href="#aM"/><use transform="matrix(0.013020833333333334,0,0,0.013020833333333334,73.20312500000001,0)" xlink:href="#aC"/><use transform="matrix(0.013020833333333334,0,0,0.013020833333333334,88.41145833333334,0)" xlink:href="#aN"/></g><path d="M703-1476c426 0 599 333 586 795-11 408-187 701-584 701-422 0-587-333-587-793 0-282 106-507 280-617 89-56 190-86 305-86zm2 1333c312 0 393-279 393-632 0-308-116-536-395-536-269 0-394 232-394 523v107c-4 298 123 538 396 538" id="bw"/><g id="aq"><use transform="matrix(0.013020833333333334,0,0,0.013020833333333334,0,0)" xlink:href="#aw"/><use transform="matrix(0.013020833333333334,0,0,0.013020833333333334,16.822916666666668,0)" xlink:href="#bw"/><use transform="matrix(0.013020833333333334,0,0,0.013020833333333334,35.15625,0)" xlink:href="#aw"/></g><g id="ar"><use transform="matrix(0.013020833333333334,0,0,0.013020833333333334,0,0)" xlink:href="#aC"/><use transform="matrix(0.013020833333333334,0,0,0.013020833333333334,15.208333333333334,0)" xlink:href="#aA"/><use transform="matrix(0.013020833333333334,0,0,0.013020833333333334,23.919270833333336,0)" xlink:href="#aS"/><use transform="matrix(0.013020833333333334,0,0,0.013020833333333334,38.606770833333336,0)" xlink:href="#az"/><use transform="matrix(0.013020833333333334,0,0,0.013020833333333334,52.734375,0)" xlink:href="#aD"/></g><g id="as"><use transform="matrix(0.013020833333333334,0,0,0.013020833333333334,0,0)" xlink:href="#aL"/><use transform="matrix(0.013020833333333334,0,0,0.013020833333333334,14.9609375,0)" xlink:href="#aC"/><use transform="matrix(0.013020833333333334,0,0,0.013020833333333334,30.169270833333336,0)" xlink:href="#aC"/><use transform="matrix(0.013020833333333334,0,0,0.013020833333333334,45.37760416666667,0)" xlink:href="#aL"/><use transform="matrix(0.013020833333333334,0,0,0.013020833333333334,60.33854166666667,0)" xlink:href="#aG"/><use transform="matrix(0.013020833333333334,0,0,0.013020833333333334,66.80989583333334,0)" xlink:href="#az"/></g><g id="at"><use transform="matrix(0.013020833333333334,0,0,0.013020833333333334,0,0)" xlink:href="#aN"/><use transform="matrix(0.013020833333333334,0,0,0.013020833333333334,14.713541666666668,0)" xlink:href="#az"/><use transform="matrix(0.013020833333333334,0,0,0.013020833333333334,28.841145833333336,0)" xlink:href="#aA"/><use transform="matrix(0.013020833333333334,0,0,0.013020833333333334,37.552083333333336,0)" xlink:href="#aB"/><use transform="matrix(0.013020833333333334,0,0,0.013020833333333334,57.591145833333336,0)" xlink:href="#aC"/><use transform="matrix(0.013020833333333334,0,0,0.013020833333333334,72.79947916666667,0)" xlink:href="#aD"/><use transform="matrix(0.013020833333333334,0,0,0.013020833333333334,81.82291666666667,0)" xlink:href="#aE"/></g><g id="au"><use transform="matrix(0.013020833333333334,0,0,0.013020833333333334,0,0)" xlink:href="#az"/><use transform="matrix(0.013020833333333334,0,0,0.013020833333333334,14.127604166666668,0)" xlink:href="#aN"/><use transform="matrix(0.013020833333333334,0,0,0.013020833333333334,28.841145833333336,0)" xlink:href="#aV"/><use transform="matrix(0.013020833333333334,0,0,0.013020833333333334,43.880208333333336,0)" xlink:href="#aZ"/><use transform="matrix(0.013020833333333334,0,0,0.013020833333333334,58.841145833333336,0)" xlink:href="#aC"/><use transform="matrix(0.013020833333333334,0,0,0.013020833333333334,74.04947916666667,0)" xlink:href="#aM"/><use transform="matrix(0.013020833333333334,0,0,0.013020833333333334,80.52083333333334,0)" xlink:href="#aN"/><use transform="matrix(0.013020833333333334,0,0,0.013020833333333334,95.23437500000001,0)" xlink:href="#aA"/></g><filter id="an" filterUnits="objectBoundingBox" x="0" y="0" width="1" height="1.02"><feOffset result="offOut" in="SourceAlpha" dy="1"/><feGaussianBlur result="blurOut" in="offOut" stdDeviation=".75"/><feColorMatrix result="colorOut" in="blurOut" values="0 0 0 0 0 0 0 0 0 0 0 0 0 0 0 0 0 0 0.4 0"/><feBlend in="SourceGraphic" in2="colorOut"/></filter></defs></g></svg>